<!DOCTYPE svg PUBLIC "-//W3C//DTD SVG 20010904//EN" "http://www.w3.org/TR/2001/REC-SVG-20010904/DTD/svg10.dtd">
<svg version="1.0" xmlns="http://www.w3.org/2000/svg" width="1200px" height="1200px" viewBox="0 0 12000 12000" preserveAspectRatio="xMidYMid meet">
<g id="layer101" fill="#ffffff" stroke="none" fill-opacity="0">
 <path d="M0 6000 l0 -6000 6000 0 6000 0 0 6000 0 6000 -6000 0 -6000 0 0 -6000z"/>
 </g>
<g id="layer102" fill="#000000" stroke="none" fill-opacity="0.18">
 <path d="M4077 11364 c-12 -12 -8 -68 7 -90 8 -12 20 -42 27 -67 14 -58 0 -101 -41 -122 -61 -32 -90 -128 -71 -243 18 -114 98 -182 212 -182 71 0 122 23 167 75 33 37 41 72 20 93 -7 7 -41 12 -80 12 -107 0 -154 35 -127 93 10 22 20 27 68 32 88 9 98 13 105 37 4 17 -2 30 -27 53 -54 50 -68 81 -71 151 -3 70 -19 96 -81 134 -34 21 -97 35 -108 24z"/>
 <path d="M1352 11310 c-12 -28 -22 -65 -22 -83 0 -17 -7 -67 -15 -110 -22 -114 -21 -354 2 -387 9 -14 22 -28 27 -32 6 -4 88 -8 183 -8 l172 0 26 37 c21 32 25 49 25 108 0 44 -7 88 -19 120 -20 52 -82 125 -107 125 -34 0 -144 131 -144 172 0 7 -10 34 -22 61 -20 41 -27 47 -53 47 -28 0 -34 -6 -53 -50z m224 -396 c8 -59 -5 -109 -31 -109 -24 0 -38 46 -30 99 7 49 12 56 35 56 15 0 20 -10 26 -46z"/>
 <path d="M2440 11135 c-7 -8 -16 -15 -21 -15 -18 0 -87 -56 -108 -87 -30 -46 -30 -151 1 -202 31 -52 106 -120 162 -147 99 -48 187 -25 248 64 29 43 32 53 32 132 1 75 -2 89 -23 120 -38 53 -60 74 -129 113 -69 41 -139 50 -162 22z m140 -134 c15 -28 12 -73 -6 -117 -21 -52 -42 -74 -69 -74 -28 0 -39 45 -29 112 11 74 79 125 104 79z"/>
 <path d="M3105 11128 c-23 -20 -27 -34 -35 -118 -18 -178 -26 -210 -49 -196 -8 5 -10 34 -5 94 5 79 4 92 -19 143 -54 119 -130 117 -171 -5 -21 -64 -20 -97 4 -173 31 -101 97 -185 169 -216 62 -27 101 -59 121 -99 11 -23 20 -48 20 -55 0 -27 39 -53 80 -53 36 0 41 3 62 43 21 39 22 55 22 247 0 190 -2 211 -24 279 -39 117 -112 163 -175 109z"/>
 <path d="M3694 11138 c-14 -22 -16 -161 -6 -285 9 -99 15 -128 34 -157 25 -37 73 -55 105 -37 99 52 119 310 33 427 -37 50 -146 85 -166 52z"/>
 <path d="M4630 11135 c-7 -8 -18 -15 -24 -15 -20 0 -77 -47 -104 -85 -22 -31 -26 -47 -26 -106 1 -59 5 -75 30 -110 15 -22 48 -58 72 -79 149 -132 295 -108 382 64 21 40 18 94 -8 148 -26 56 -67 99 -150 156 -53 35 -71 42 -111 42 -31 0 -53 -5 -61 -15z m144 -173 c13 -25 12 -34 -5 -82 -20 -57 -40 -80 -70 -80 -26 0 -33 18 -32 84 2 45 7 64 24 82 31 33 65 31 83 -4z"/>
 <path d="M9785 11125 c-22 -14 -49 -30 -60 -36 -11 -6 -31 -25 -45 -42 -22 -28 -25 -40 -24 -112 1 -73 3 -84 33 -127 74 -109 196 -170 305 -154 96 15 158 128 135 246 -17 85 -51 130 -162 214 -61 45 -120 49 -182 11z m158 -162 c12 -22 12 -34 1 -77 -20 -78 -86 -117 -100 -60 -10 39 3 124 22 145 25 28 61 24 77 -8z"/>
 <path d="M9415 11123 c-71 -38 -88 -92 -92 -290 -4 -178 -1 -193 49 -219 27 -14 39 -15 84 -4 56 14 147 75 152 103 2 9 -12 33 -32 53 -48 49 -60 91 -47 155 20 90 14 153 -15 188 -29 35 -54 38 -99 14z"/>
 <path d="M8760 11112 c-22 -18 -24 -29 -28 -118 -7 -144 -34 -175 -100 -114 -70 63 -98 63 -108 0 -4 -22 -15 -52 -26 -65 -16 -21 -23 -23 -40 -14 -16 9 -19 18 -15 45 8 51 36 81 104 114 64 30 79 51 65 90 -10 27 -89 60 -143 60 -44 0 -105 -24 -137 -53 -42 -38 -72 -111 -72 -172 0 -59 31 -135 66 -166 90 -76 214 -86 277 -23 45 45 82 46 242 5 35 -9 124 -24 223 -38 45 -7 86 13 107 50 29 55 6 290 -33 329 -6 6 -12 17 -12 23 0 33 -98 82 -114 57 -3 -5 -10 -63 -15 -128 -11 -138 -25 -196 -46 -188 -21 8 -35 60 -35 129 0 67 -25 138 -58 168 -30 28 -74 31 -102 9z"/>
 <path d="M1933 11088 c-39 -18 -45 -26 -63 -85 -14 -44 -20 -93 -20 -154 0 -155 34 -189 189 -189 91 0 146 14 171 45 11 14 11 22 0 53 -16 47 -24 52 -83 52 -42 0 -49 3 -58 27 -11 29 -3 80 15 103 52 63 40 128 -28 154 -53 20 -71 20 -123 -6z"/>
 <path d="M3485 11093 c-40 -21 -57 -47 -73 -108 -27 -104 -14 -261 25 -307 34 -39 93 -28 127 25 8 12 22 78 31 147 9 69 21 144 27 168 10 39 9 45 -12 67 -28 30 -79 33 -125 8z"/>
 <path d="M5103 11089 c-33 -21 -36 -29 -47 -129 -8 -72 11 -189 36 -226 24 -34 109 -74 160 -74 38 0 120 30 146 54 43 38 55 72 41 114 -17 54 -34 75 -74 96 -35 19 -36 19 -63 -1 -18 -13 -28 -31 -30 -54 -7 -70 -74 -96 -80 -31 -4 43 25 80 95 117 70 37 87 61 70 95 -27 54 -191 80 -254 39z"/>
 <path d="M5623 11102 c-28 -4 -45 -25 -37 -46 4 -10 24 -18 55 -22 48 -6 69 -24 29 -24 -26 0 -99 -29 -131 -52 -69 -51 -58 -151 26 -224 27 -24 54 -44 60 -44 5 0 24 -7 40 -17 21 -11 57 -16 123 -17 86 -1 95 1 112 22 16 19 18 34 13 92 -6 67 -5 70 28 111 27 34 33 50 33 90 0 40 -5 54 -28 78 -44 46 -195 71 -323 53z"/>
 <path d="M6523 11090 c-62 -27 -86 -80 -80 -174 5 -83 21 -131 64 -184 63 -78 212 -80 288 -4 27 27 35 44 35 70 0 41 -27 89 -69 120 -33 24 -80 30 -82 10 -1 -7 -2 -33 -3 -58 -1 -38 -4 -45 -21 -45 -17 0 -20 8 -23 45 -2 37 2 50 23 73 14 15 34 27 43 27 28 0 62 29 62 54 0 29 -22 48 -80 69 -58 22 -104 21 -157 -3z"/>
 <path d="M7355 11092 c-57 -35 -60 -45 -60 -176 1 -113 2 -124 26 -161 32 -49 42 -57 99 -78 58 -22 84 -21 148 1 62 22 108 63 117 103 13 57 -63 159 -117 159 -26 0 -61 -49 -67 -93 -5 -37 -9 -42 -34 -45 -35 -4 -44 17 -27 69 13 39 65 89 94 89 22 0 76 49 76 69 0 62 -183 107 -255 63z"/>
 <path d="M7910 11094 c-71 -45 -158 -210 -167 -320 -4 -44 -1 -55 22 -82 20 -24 35 -32 60 -32 51 0 84 46 161 227 19 45 34 48 34 7 0 -14 9 -51 20 -83 40 -119 76 -154 130 -126 29 15 30 18 30 88 0 49 -5 80 -15 93 -8 10 -15 25 -15 32 0 32 -119 162 -177 195 -38 21 -51 21 -83 1z"/>
 <path d="M10314 11094 c-54 -28 -69 -66 -69 -174 0 -133 31 -196 120 -243 31 -17 58 -22 122 -22 110 0 118 8 118 118 l0 82 36 5 c47 8 88 39 89 68 0 30 -42 95 -80 122 -71 51 -271 77 -336 44z"/>
 <path d="M4585 10576 c-8 -13 -13 -29 -10 -37 19 -49 172 -91 253 -69 59 16 72 26 72 56 0 20 -11 29 -54 49 -46 21 -70 25 -150 25 -89 0 -97 -2 -111 -24z"/>
 <path d="M9439 9849 c-106 -109 -234 -270 -265 -334 -19 -39 -20 -40 -81 -45 -34 -3 -63 -7 -65 -10 -18 -22 -50 -88 -57 -118 -33 -130 -92 -214 -301 -422 -69 -69 -144 -152 -166 -185 -79 -120 -138 -263 -178 -436 -8 -30 -18 -65 -25 -77 -6 -11 -11 -29 -11 -39 0 -16 -48 -146 -87 -233 -23 -53 -49 -111 -66 -150 -21 -47 -166 -341 -178 -360 -5 -8 -13 -26 -19 -40 -5 -14 -14 -33 -20 -42 -5 -10 -15 -26 -20 -35 -6 -10 -13 -25 -16 -33 -3 -8 -21 -49 -41 -90 -19 -41 -41 -88 -48 -105 -7 -16 -29 -64 -48 -105 -18 -41 -44 -100 -57 -130 -28 -67 -48 -115 -66 -155 -18 -40 -44 -113 -53 -150 -4 -17 -13 -39 -19 -50 -14 -23 -40 -95 -52 -143 -4 -18 -12 -38 -17 -45 -5 -7 -15 -31 -22 -54 -8 -31 -18 -44 -35 -49 -14 -3 -145 -4 -293 -2 -233 3 -275 6 -323 23 -62 21 -140 57 -185 85 -77 48 -209 100 -251 100 -48 0 -134 -43 -173 -86 -57 -64 -141 -255 -141 -323 0 -12 -5 -31 -11 -42 -10 -19 -26 -108 -49 -264 -6 -38 -17 -108 -25 -155 -22 -125 -20 -222 6 -272 26 -52 35 -61 87 -87 38 -19 63 -21 294 -27 266 -6 466 -25 480 -46 12 -19 10 -96 -3 -104 -6 -3 -17 -21 -25 -38 -8 -17 -33 -58 -57 -91 -58 -84 -59 -85 -127 -225 -34 -69 -68 -137 -76 -152 -8 -14 -14 -34 -14 -43 0 -9 -6 -29 -14 -43 -28 -54 -72 -174 -87 -237 -6 -21 -14 -44 -20 -51 -5 -6 -13 -31 -18 -55 -5 -24 -14 -57 -19 -74 -6 -16 -19 -61 -30 -100 -11 -38 -27 -94 -36 -124 -9 -29 -16 -68 -16 -86 0 -17 -7 -54 -15 -81 -12 -38 -19 -171 -31 -614 -21 -805 -19 -782 -110 -917 -24 -38 -48 -79 -51 -92 -3 -14 -12 -36 -19 -50 -8 -14 -14 -47 -14 -72 0 -58 -56 -184 -99 -224 -25 -22 -38 -13 -67 47 -45 92 -53 115 -59 176 -4 35 -13 76 -21 90 -8 15 -14 34 -15 42 0 8 -20 42 -44 75 -25 33 -54 79 -64 103 -35 76 -59 413 -60 841 -1 198 -5 313 -15 375 -8 50 -19 123 -25 161 -13 92 -36 204 -48 235 -6 14 -13 46 -17 72 -4 26 -11 50 -15 53 -5 2 -12 26 -16 52 -4 26 -13 60 -21 75 -8 15 -14 37 -14 50 0 13 -7 36 -15 52 -8 15 -15 36 -15 45 -1 9 -8 34 -16 56 -9 22 -19 56 -24 75 -10 42 -35 113 -55 157 -8 17 -15 38 -15 46 0 9 -6 28 -14 44 -8 15 -27 54 -43 86 -32 66 -37 75 -78 137 -16 25 -34 53 -40 62 -5 10 -29 45 -52 78 -24 33 -43 64 -43 67 0 4 -6 14 -13 22 -7 9 -21 36 -30 61 -17 44 -17 45 5 62 12 9 34 19 48 23 14 3 191 8 394 12 345 6 370 7 388 25 15 15 18 28 13 61 -3 23 -10 161 -15 307 -7 180 -15 283 -25 320 -8 30 -15 68 -15 85 -1 16 -7 41 -15 55 -8 14 -14 35 -15 46 0 21 -23 81 -58 154 -34 70 -91 142 -142 181 -45 34 -59 39 -104 39 -29 0 -59 -7 -70 -15 -11 -8 -25 -15 -32 -15 -13 0 -81 -39 -179 -101 -42 -27 -99 -55 -175 -85 -39 -15 -85 -18 -327 -22 l-282 -3 -20 45 c-12 25 -21 51 -21 59 0 7 -7 22 -15 33 -8 10 -15 26 -15 34 0 17 -35 111 -56 152 -8 14 -14 35 -14 45 0 11 -7 28 -15 39 -8 10 -15 26 -15 34 0 8 -9 32 -20 53 -11 20 -20 42 -20 49 0 6 -9 32 -21 57 -26 57 -41 90 -73 164 -68 150 -78 173 -87 187 -5 8 -12 22 -15 30 -14 33 -128 259 -164 325 -21 39 -53 97 -70 130 -33 65 -44 85 -60 113 -6 9 -13 24 -16 32 -3 8 -21 47 -39 85 -18 39 -43 97 -56 130 -13 33 -29 69 -36 80 -7 11 -13 29 -13 40 0 11 -7 33 -15 49 -8 15 -15 36 -15 45 -1 9 -8 34 -16 56 -9 22 -19 56 -24 75 -10 41 -35 113 -54 155 -71 153 -130 262 -178 326 -62 82 -99 114 -165 143 -38 17 -89 64 -120 112 -7 11 -34 62 -60 114 -74 148 -131 223 -188 249 -70 31 -79 37 -88 66 -32 97 -334 395 -400 395 -22 0 -27 -6 -37 -52 -6 -29 -16 -98 -20 -153 -11 -125 -11 -1286 0 -1455 14 -222 32 -384 46 -428 8 -23 14 -55 14 -70 0 -15 7 -40 15 -56 8 -15 15 -36 15 -45 0 -10 9 -51 20 -92 24 -90 25 -169 4 -211 -18 -34 -15 -100 6 -158 17 -46 81 -178 101 -210 10 -14 37 -56 63 -95 25 -38 67 -100 93 -137 26 -38 61 -87 78 -110 16 -24 64 -88 105 -143 42 -55 94 -125 115 -155 96 -137 119 -169 166 -235 189 -264 235 -342 225 -381 -18 -72 -350 -417 -539 -560 -40 -30 -76 -58 -82 -62 -11 -9 -79 -41 -140 -66 -23 -10 -65 -21 -95 -26 -130 -21 -211 -58 -263 -120 -36 -42 -38 -122 -4 -160 59 -67 159 -101 322 -111 119 -7 207 -25 275 -56 68 -32 165 -82 190 -98 22 -15 121 -45 148 -45 13 0 31 4 41 10 10 5 43 14 72 19 30 5 68 14 84 20 71 25 220 51 294 51 134 0 248 -51 353 -157 64 -65 96 -101 112 -126 8 -12 34 -54 60 -94 25 -40 51 -83 56 -95 6 -13 14 -30 19 -38 22 -36 81 -167 81 -180 0 -9 6 -24 14 -35 7 -11 17 -39 21 -62 4 -24 11 -45 15 -48 5 -3 12 -27 15 -53 3 -26 12 -76 20 -112 17 -77 32 -523 41 -1222 l7 -473 43 -82 c24 -44 53 -98 65 -120 12 -21 42 -76 66 -123 25 -47 48 -92 53 -100 5 -8 34 -60 66 -115 104 -181 191 -280 369 -415 40 -30 82 -62 95 -70 12 -8 52 -38 88 -66 37 -28 87 -63 112 -78 25 -15 77 -49 115 -77 39 -28 102 -71 140 -96 39 -25 82 -54 97 -64 15 -10 31 -19 36 -19 5 0 15 -7 22 -15 7 -8 28 -15 47 -15 31 0 36 4 53 43 12 27 21 80 25 147 4 58 13 127 21 154 8 27 14 70 14 95 0 25 7 75 16 111 12 48 16 129 18 313 2 238 3 249 24 269 17 17 22 19 26 7 12 -41 28 -228 36 -416 5 -116 13 -229 19 -250 5 -21 12 -67 16 -103 6 -69 28 -132 55 -165 18 -21 35 -82 45 -157 13 -98 66 -78 365 137 38 28 98 70 132 95 35 25 68 48 73 52 6 5 53 40 105 79 198 148 302 249 382 370 55 83 113 180 124 209 3 8 10 22 15 30 5 8 14 26 19 40 6 14 15 32 20 40 6 8 13 22 16 30 12 28 126 265 153 315 l26 50 6 750 c6 756 16 1004 44 1078 8 20 15 46 15 56 0 17 18 65 55 146 8 17 16 37 19 45 9 23 64 118 104 180 120 185 273 332 385 372 62 21 163 24 267 7 42 -7 172 -13 295 -13 241 -1 221 -5 367 70 37 19 75 34 85 34 10 0 27 7 37 15 11 8 34 15 51 15 17 0 54 6 81 14 27 8 85 17 129 21 81 7 179 34 219 60 12 8 33 36 45 61 40 78 14 157 -69 209 -28 18 -63 26 -136 34 -55 6 -115 16 -134 22 -175 54 -519 321 -682 529 -32 41 -65 82 -73 91 -8 9 -15 19 -15 23 0 4 -9 19 -20 33 -29 38 -25 65 22 135 24 35 45 65 48 68 3 3 25 34 49 70 24 36 72 106 106 155 34 50 81 119 106 155 24 36 46 67 49 70 3 3 19 25 35 50 17 25 35 50 40 57 6 6 26 35 45 63 19 28 51 73 70 99 19 27 42 59 50 71 8 12 23 33 32 45 59 77 189 282 221 347 37 77 37 77 47 260 12 234 28 406 41 430 5 10 12 48 16 86 3 37 12 92 19 122 8 30 14 88 14 130 0 41 7 145 16 230 22 223 22 1055 0 1259 -9 79 -16 169 -16 200 0 44 -6 65 -25 94 -42 60 -62 53 -176 -64z"/>
 </g>
<g id="layer103" fill="#000000" stroke="none" fill-opacity="0.31">
 <path d="M4093 11353 c-17 -6 -16 -43 0 -68 8 -11 22 -44 33 -73 18 -52 18 -53 -1 -88 -10 -20 -31 -42 -46 -49 -49 -26 -63 -61 -65 -165 -1 -73 3 -103 16 -130 61 -120 223 -146 323 -52 41 39 50 58 37 83 -10 17 -20 20 -73 19 -86 -3 -119 9 -144 51 -15 25 -15 28 6 57 21 30 32 34 119 47 24 4 46 13 49 21 3 8 -15 36 -41 65 -25 28 -47 56 -47 63 -1 6 -3 36 -4 67 -1 37 -8 64 -21 81 -30 41 -111 81 -141 71z"/>
 <path d="M1376 11338 c-2 -7 -12 -34 -21 -60 -10 -26 -15 -57 -12 -70 4 -12 1 -28 -4 -35 -7 -7 -13 -95 -16 -215 -7 -267 -22 -248 192 -255 147 -5 162 -4 183 13 29 24 43 108 31 182 -16 102 -20 108 -125 180 -66 45 -133 126 -135 162 -1 35 -45 105 -67 108 -12 2 -24 -3 -26 -10z m200 -383 c25 -38 28 -95 7 -134 -21 -41 -32 -46 -58 -27 -17 12 -20 26 -20 86 0 59 3 74 19 86 27 19 33 18 52 -11z"/>
 <path d="M2435 11117 c-22 -12 -61 -42 -86 -68 -46 -45 -47 -47 -46 -109 0 -75 26 -129 89 -185 48 -44 136 -85 181 -85 66 1 169 91 165 145 0 11 2 28 7 38 19 44 -21 155 -71 198 -41 35 -146 89 -172 88 -15 0 -45 -10 -67 -22z m143 -93 c18 -12 22 -25 22 -70 0 -84 -41 -154 -91 -154 -41 0 -53 29 -46 109 6 59 10 69 42 99 40 37 43 37 73 16z"/>
 <path d="M3135 11130 c-40 -15 -48 -38 -55 -153 -7 -116 -28 -187 -54 -187 -22 0 -30 35 -30 145 -1 113 -20 162 -70 180 -60 21 -91 -33 -90 -155 0 -71 5 -95 27 -141 29 -61 98 -132 150 -154 73 -32 137 -100 137 -146 0 -24 38 -54 72 -55 26 -2 32 4 49 40 10 24 19 65 19 92 8 370 -18 501 -109 532 -14 5 -35 6 -46 2z"/>
 <path d="M3710 11138 c-7 -45 -6 -354 1 -380 13 -52 49 -90 83 -90 83 0 132 173 91 327 -18 69 -44 103 -96 127 -35 15 -78 24 -79 16z"/>
 <path d="M4625 11117 c-110 -60 -128 -85 -131 -182 -2 -83 11 -111 89 -181 62 -56 121 -83 179 -82 84 1 164 66 188 154 27 94 -26 184 -160 272 -74 48 -105 51 -165 19z m167 -155 c12 -22 15 -38 9 -50 -5 -9 -17 -35 -26 -57 -31 -73 -91 -99 -113 -50 -15 32 -15 95 -1 132 18 47 39 64 78 61 27 -2 38 -10 53 -36z"/>
 <path d="M9805 11121 c-54 -30 -89 -56 -112 -81 -24 -28 -41 -116 -25 -132 6 -6 8 -16 6 -23 -8 -21 35 -91 82 -135 88 -81 212 -108 286 -62 86 53 105 197 39 297 -19 29 -63 73 -103 103 -77 57 -116 65 -173 33z m149 -143 c21 -30 20 -66 -4 -121 -32 -71 -85 -97 -114 -55 -30 43 -11 152 32 184 27 21 69 17 86 -8z"/>
 <path d="M8770 11100 c-15 -15 -20 -30 -17 -46 2 -14 0 -27 -4 -30 -5 -3 -9 -35 -9 -72 0 -115 -48 -145 -123 -77 -57 52 -87 45 -87 -21 0 -63 -68 -101 -91 -50 -27 59 22 137 109 171 79 32 78 84 -2 104 -128 32 -205 0 -252 -107 -31 -68 -30 -114 4 -182 38 -75 108 -119 189 -118 53 1 123 28 123 47 0 12 48 31 76 31 13 0 68 -12 121 -26 53 -14 106 -23 117 -20 11 3 25 1 30 -4 6 -4 47 -11 91 -15 103 -9 113 -2 125 86 22 153 -45 339 -120 339 -25 0 -28 -4 -34 -52 -3 -29 -6 -84 -6 -123 0 -48 -7 -84 -20 -113 -27 -59 -39 -53 -80 38 -4 8 -5 32 -2 54 6 48 -24 149 -52 174 -35 32 -62 36 -86 12z"/>
 <path d="M9418 11112 c-26 -11 -53 -53 -70 -112 -13 -41 -17 -92 -16 -194 0 -134 1 -140 25 -164 22 -22 31 -24 78 -19 54 5 113 36 150 77 l20 22 -31 28 c-28 24 -44 49 -75 112 -5 9 -5 19 0 22 13 8 34 144 26 174 -13 54 -55 75 -107 54z"/>
 <path d="M5170 11093 c-48 -7 -82 -26 -91 -50 -12 -33 -11 -225 2 -260 29 -78 119 -116 224 -95 30 6 66 19 80 29 50 37 55 117 9 166 -33 35 -60 42 -91 22 -20 -14 -24 -22 -20 -45 5 -22 0 -34 -20 -54 -46 -46 -83 -29 -83 39 0 50 38 96 102 124 54 23 72 44 64 75 -5 19 -16 26 -58 36 -73 15 -89 17 -118 13z"/>
 <path d="M10395 11094 c-107 -13 -132 -41 -142 -154 -6 -74 20 -165 59 -208 65 -70 237 -94 273 -38 12 18 13 33 4 84 -13 74 -6 87 50 97 22 3 49 17 61 30 21 22 21 23 3 61 -27 56 -88 99 -164 113 -90 17 -110 19 -144 15z m105 -74 c0 -5 -20 -10 -45 -10 -25 0 -45 5 -45 10 0 6 20 10 45 10 25 0 45 -4 45 -10z"/>
 <path d="M1953 11083 c-45 -9 -69 -54 -82 -151 -6 -49 -9 -102 -6 -118 2 -16 7 -46 10 -67 5 -33 12 -41 43 -54 44 -18 179 -21 240 -4 39 11 42 14 42 46 0 47 -22 65 -81 65 -45 0 -51 3 -60 28 -13 34 -6 98 14 120 20 22 31 66 23 96 -9 37 -70 53 -143 39z"/>
 <path d="M3490 11079 c-44 -17 -61 -53 -70 -150 -10 -102 3 -214 26 -240 44 -49 127 8 123 85 -1 23 1 48 3 56 6 18 24 115 34 183 4 32 2 52 -6 62 -14 17 -71 19 -110 4z"/>
 <path d="M5656 11081 c-16 -3 -31 -11 -33 -18 -4 -12 9 -17 69 -28 53 -8 55 -22 6 -35 -112 -28 -130 -34 -155 -56 -25 -21 -28 -31 -28 -82 1 -65 22 -102 80 -138 46 -28 118 -55 140 -52 11 1 26 -1 33 -6 17 -10 108 3 120 17 6 7 10 46 10 88 -1 72 1 79 33 119 26 33 33 50 33 82 -2 60 -41 94 -124 107 -70 12 -138 12 -184 2z"/>
 <path d="M6530 11078 c-41 -15 -80 -81 -80 -136 0 -66 32 -160 70 -204 34 -39 40 -42 98 -46 34 -2 76 -2 95 2 39 7 94 57 103 93 9 33 -23 89 -66 119 -44 30 -62 31 -60 2 4 -46 0 -75 -13 -92 -11 -15 -17 -17 -35 -7 -18 10 -22 20 -22 64 1 63 17 86 84 115 53 24 57 43 16 74 -32 24 -142 33 -190 16z"/>
 <path d="M7359 11079 c-31 -11 -54 -58 -45 -87 4 -11 2 -23 -4 -27 -13 -8 -13 -82 0 -90 6 -3 7 -17 4 -30 -8 -33 22 -106 52 -128 40 -30 120 -42 186 -28 44 10 64 20 87 47 17 19 31 46 31 60 0 42 -36 100 -71 114 -48 20 -69 2 -89 -77 -13 -51 -48 -67 -80 -38 -45 41 -4 124 84 169 33 17 64 39 70 49 15 24 -2 49 -45 64 -41 14 -144 15 -180 2z"/>
 <path d="M7913 11077 c-47 -26 -110 -133 -144 -244 -22 -71 -20 -96 12 -136 41 -54 93 -23 143 86 48 103 66 146 66 156 0 23 30 9 36 -16 45 -200 93 -269 147 -215 54 55 -1 210 -114 319 -62 59 -104 74 -146 50z"/>
 <path d="M4606 10574 c-9 -8 -16 -22 -16 -30 0 -18 77 -57 101 -51 11 3 22 1 25 -4 6 -10 97 -10 134 0 19 5 25 13 25 36 0 27 -5 31 -55 47 -72 22 -193 24 -214 2z"/>
 <path d="M9523 9911 c-75 -54 -280 -296 -330 -391 l-30 -55 -59 -5 c-55 -5 -60 -7 -86 -45 -15 -22 -32 -61 -37 -87 -24 -108 -104 -220 -297 -413 -198 -198 -252 -292 -333 -575 -89 -312 -154 -465 -413 -975 -66 -128 -196 -411 -237 -515 -13 -30 -29 -68 -36 -85 -15 -32 -49 -118 -70 -175 -7 -19 -22 -60 -34 -90 -11 -31 -21 -63 -21 -72 0 -9 -4 -19 -8 -22 -5 -3 -21 -45 -37 -93 -43 -133 -23 -126 -328 -122 -143 2 -261 7 -264 12 -2 4 -16 7 -31 7 -49 0 -173 48 -257 100 -226 140 -369 114 -468 -85 -20 -39 -38 -84 -42 -100 -4 -17 -13 -48 -20 -70 -17 -50 -43 -166 -51 -225 -3 -25 -12 -78 -21 -118 -8 -40 -13 -86 -9 -102 3 -16 2 -31 -3 -34 -4 -3 -14 -50 -21 -105 -12 -92 -12 -106 5 -161 10 -32 27 -68 39 -78 38 -34 107 -53 180 -49 37 2 69 0 72 -5 3 -4 99 -8 214 -8 289 0 380 -22 380 -94 0 -28 -44 -115 -95 -190 -60 -86 -74 -108 -90 -141 -8 -16 -19 -37 -25 -45 -12 -20 -62 -130 -94 -210 -15 -36 -31 -74 -36 -85 -34 -73 -133 -386 -206 -652 -9 -34 -14 -69 -10 -79 3 -9 2 -22 -2 -28 -14 -18 -35 -162 -28 -191 4 -16 2 -33 -5 -41 -9 -11 -11 -107 -7 -389 4 -216 2 -377 -3 -381 -5 -3 -9 -36 -9 -74 0 -121 -20 -323 -37 -370 -8 -25 -35 -74 -59 -110 -51 -76 -82 -153 -91 -230 -11 -93 -87 -232 -130 -238 -41 -6 -100 116 -128 263 -16 88 -48 160 -99 223 -12 15 -29 45 -39 67 -24 57 -47 246 -47 385 0 66 -4 121 -10 125 -6 4 -7 96 -4 246 5 221 -7 456 -24 484 -3 5 -6 39 -7 75 -1 56 -15 141 -33 190 -3 8 -4 19 -3 25 1 5 -4 32 -12 60 -8 27 -22 79 -32 115 -9 36 -25 94 -36 130 -11 36 -26 88 -34 115 -39 134 -82 266 -120 370 -15 39 -29 79 -32 89 -12 38 -76 152 -126 226 -133 196 -134 198 -147 230 -6 14 -15 35 -21 46 -21 42 -2 67 66 89 32 11 92 14 435 21 196 3 330 10 338 16 13 11 17 119 5 132 -5 4 -8 103 -8 219 0 193 -9 289 -33 357 -3 8 -4 19 -3 25 5 21 -58 219 -89 279 -72 138 -166 223 -239 213 -59 -8 -154 -53 -270 -129 -147 -97 -253 -118 -594 -118 l-197 0 -20 32 c-11 18 -22 46 -26 63 -3 16 -10 35 -14 40 -4 6 -13 26 -18 45 -6 19 -29 82 -52 140 -23 58 -46 119 -51 135 -5 17 -13 39 -18 50 -6 11 -29 65 -51 120 -23 55 -50 118 -60 140 -10 22 -33 72 -50 110 -43 96 -170 349 -236 470 -29 55 -88 170 -130 255 -42 85 -82 168 -90 183 -8 16 -14 34 -14 40 -1 7 -9 30 -20 52 -11 22 -19 45 -20 52 0 7 -6 27 -14 45 -8 18 -24 67 -36 108 -32 105 -56 178 -75 225 -45 110 -137 283 -179 334 -45 56 -117 119 -143 126 -65 16 -128 90 -203 239 -53 105 -109 194 -136 217 -10 9 -35 21 -54 28 -51 17 -80 39 -80 60 0 26 -98 150 -189 241 -100 98 -134 127 -177 147 -31 15 -36 15 -45 3 -5 -8 -8 -31 -7 -50 1 -20 -2 -41 -6 -48 -4 -7 -10 -76 -12 -154 -3 -78 -7 -144 -9 -147 -6 -6 -6 -1016 0 -1022 2 -3 7 -78 10 -168 3 -90 7 -167 10 -171 3 -5 7 -55 9 -112 4 -91 25 -213 55 -318 54 -192 70 -289 53 -324 -30 -60 -33 -93 -17 -153 42 -145 155 -331 419 -683 99 -132 152 -204 222 -305 19 -27 57 -81 85 -120 120 -168 187 -270 220 -333 21 -43 21 -44 3 -78 -49 -92 -302 -355 -499 -519 -107 -89 -257 -175 -303 -175 -30 0 -187 -42 -228 -61 -23 -11 -57 -35 -77 -55 -31 -31 -36 -42 -35 -83 0 -104 118 -165 344 -176 50 -2 97 -6 105 -9 8 -2 41 -11 74 -21 62 -17 153 -52 170 -65 39 -29 153 -82 196 -91 53 -12 112 -5 224 26 123 34 143 39 185 47 55 10 228 13 237 4 3 -3 15 -6 25 -6 10 0 26 -4 36 -9 9 -5 37 -19 62 -31 101 -50 210 -161 305 -312 48 -77 143 -263 171 -338 28 -72 59 -180 74 -255 7 -33 15 -67 18 -75 3 -8 6 -46 7 -85 5 -237 17 -542 22 -555 3 -8 5 -240 3 -516 l-2 -500 38 -70 c20 -38 55 -103 77 -144 21 -41 56 -106 77 -145 21 -38 51 -95 66 -125 16 -30 36 -66 45 -80 9 -14 34 -52 55 -85 107 -167 244 -283 682 -582 212 -145 281 -190 309 -202 11 -5 24 -15 28 -20 11 -18 63 -13 69 7 12 40 27 146 31 214 2 40 6 80 9 88 11 36 26 117 26 140 -1 14 6 68 15 120 10 56 14 122 11 161 -2 36 -1 135 4 219 7 132 11 156 28 173 11 11 27 17 35 14 17 -6 37 -107 37 -185 0 -28 5 -54 11 -58 7 -4 9 -41 4 -118 -4 -67 -2 -145 5 -196 6 -47 15 -125 21 -175 10 -93 32 -179 54 -205 27 -32 45 -81 45 -122 1 -132 43 -122 307 67 62 44 148 105 190 135 155 109 339 256 413 330 106 104 182 225 322 510 66 135 134 272 151 305 l32 60 6 800 c5 661 9 819 22 910 16 109 38 201 56 240 6 11 20 45 33 75 60 147 181 324 308 451 83 83 121 113 174 139 l68 32 147 -5 c80 -3 202 -10 271 -17 227 -22 324 -10 455 56 110 56 251 96 385 109 89 9 188 34 228 57 61 37 81 137 39 199 -36 54 -94 80 -190 86 -129 8 -219 45 -387 161 -168 117 -399 332 -472 442 -21 30 -51 75 -68 99 -16 24 -30 50 -30 57 0 12 117 192 225 344 21 30 66 96 100 145 34 50 78 114 98 143 41 58 99 141 131 187 12 17 23 32 26 35 3 3 14 19 26 35 11 17 38 55 59 85 195 277 275 421 275 495 2 201 33 525 61 619 6 22 9 54 6 72 -3 17 -2 36 2 40 12 14 32 145 31 205 0 30 5 126 12 214 14 180 18 1098 5 1130 -4 11 -10 65 -11 120 -6 173 -12 229 -29 261 -23 44 -40 47 -84 15z"/>
 </g>
<g id="layer104" fill="#515151" stroke="none">
 <path d="M1394 11332 c-31 -22 -56 -246 -52 -464 l3 -133 150 -13 c134 -12 153 -12 183 2 l33 16 -2 108 c-1 78 -6 115 -18 135 -15 27 -92 87 -111 87 -4 0 -30 24 -57 54 -34 39 -56 76 -73 126 -26 74 -39 94 -56 82z m198 -372 c30 -41 34 -92 9 -143 -24 -50 -43 -62 -72 -47 -23 13 -49 71 -49 110 0 28 21 88 36 103 15 15 57 2 76 -23z"/>
 <path d="M4090 11333 c0 -3 16 -39 35 -80 19 -41 35 -81 35 -90 0 -24 -49 -91 -71 -98 -11 -4 -30 -23 -44 -43 -49 -72 -26 -235 41 -293 67 -58 200 -50 263 15 46 48 37 62 -46 71 -97 10 -104 12 -130 36 -30 29 -31 78 0 106 25 23 66 39 120 49 20 3 37 8 37 11 0 3 -20 27 -44 55 -41 47 -43 53 -44 114 -1 74 -19 104 -77 135 -34 19 -75 25 -75 12z"/>
 <path d="M2455 11111 c-91 -49 -145 -114 -145 -174 0 -67 58 -155 134 -204 46 -30 76 -38 139 -37 89 2 147 77 147 188 -1 95 -47 156 -167 217 -64 33 -66 33 -108 10z m140 -86 c62 -61 -6 -245 -89 -245 -82 0 -85 191 -3 248 41 28 62 28 92 -3z"/>
 <path d="M3714 11117 c-3 -9 -4 -87 -1 -174 4 -130 9 -166 26 -205 26 -61 60 -73 98 -36 29 29 38 73 38 183 0 141 -22 197 -88 221 -18 6 -40 15 -49 19 -12 5 -20 2 -24 -8z"/>
 <path d="M4645 11111 c-114 -64 -145 -101 -145 -174 0 -93 97 -207 206 -241 51 -16 58 -16 104 -1 36 12 60 29 87 62 35 42 37 50 37 112 0 36 -5 74 -10 84 -35 62 -190 179 -232 176 -9 -1 -30 -9 -47 -18z m140 -116 c47 -46 24 -156 -44 -212 -36 -31 -63 -29 -89 7 -55 74 3 230 86 230 12 0 34 -11 47 -25z"/>
 <path d="M9820 11111 c-108 -53 -140 -92 -140 -173 0 -69 30 -128 91 -181 50 -43 131 -76 186 -77 48 0 101 29 124 69 17 29 21 51 20 110 -2 64 -6 80 -32 120 -43 64 -161 153 -201 150 -7 0 -29 -8 -48 -18z m144 -122 c33 -39 33 -76 1 -138 -26 -53 -67 -91 -95 -91 -10 0 -30 14 -44 31 -33 38 -35 98 -5 154 42 82 97 99 143 44z"/>
 <path d="M2879 11091 c-21 -16 -23 -28 -25 -112 -3 -79 1 -102 20 -147 27 -64 81 -121 144 -152 89 -44 142 -99 142 -147 0 -23 39 -63 62 -63 11 0 24 20 38 58 19 49 22 77 22 207 -1 103 -6 168 -16 210 -9 32 -16 68 -16 79 0 10 -11 34 -26 53 -19 25 -32 33 -58 33 -56 0 -63 -13 -69 -135 -9 -170 -50 -243 -103 -184 -16 18 -19 34 -16 98 4 108 -5 165 -33 195 -29 31 -36 32 -66 7z"/>
 <path d="M9438 11101 c-42 -9 -63 -48 -86 -161 -31 -146 -28 -226 9 -278 32 -44 150 -22 205 39 18 21 18 21 -8 44 -65 56 -80 117 -57 225 20 94 -4 143 -63 131z"/>
 <path d="M8772 11073 c-6 -16 -13 -68 -16 -116 -4 -75 -8 -93 -27 -113 -32 -34 -61 -30 -114 16 -25 22 -50 40 -56 40 -5 0 -9 -18 -9 -39 0 -28 -8 -49 -26 -71 -34 -40 -71 -38 -96 5 -36 63 11 145 110 192 57 27 64 44 28 68 -27 18 -156 20 -188 3 -25 -12 -68 -72 -76 -105 -23 -100 5 -192 72 -231 89 -54 161 -49 237 14 46 38 93 45 151 20 61 -26 182 -47 283 -49 l100 -2 0 136 c0 116 -3 141 -20 175 -27 54 -55 84 -77 84 -21 0 -21 3 -18 -127 2 -92 -1 -108 -24 -158 -15 -30 -32 -55 -40 -55 -26 0 -59 49 -63 92 -8 95 -35 203 -55 226 -30 31 -63 29 -76 -5z"/>
 <path d="M10358 11071 c-56 -8 -61 -12 -76 -67 -26 -90 -5 -214 45 -266 51 -53 204 -77 242 -39 17 17 18 25 9 53 -6 18 -11 51 -12 73 -1 38 0 40 49 58 78 30 80 32 77 63 -4 35 -35 70 -83 95 -56 28 -171 42 -251 30z m166 -41 c14 -14 -11 -39 -49 -46 -61 -11 -132 47 -73 59 32 7 110 -1 122 -13z"/>
 <path d="M1918 11041 c-24 -28 -25 -36 -27 -174 -2 -133 -1 -147 16 -156 20 -10 244 -14 269 -4 20 8 17 47 -6 68 -13 11 -27 15 -44 11 -63 -16 -109 49 -86 122 7 20 19 48 27 60 21 35 25 68 9 85 -8 8 -38 15 -74 16 -55 2 -61 0 -84 -28z"/>
 <path d="M3467 11044 c-18 -21 -23 -41 -27 -112 -3 -48 -3 -118 0 -155 5 -62 8 -70 33 -85 28 -17 29 -17 56 14 25 28 28 39 30 109 1 43 9 96 16 119 8 23 15 62 15 89 l0 47 -50 0 c-41 0 -54 -5 -73 -26z"/>
 <path d="M5106 11047 c-22 -22 -24 -32 -24 -124 0 -75 5 -111 18 -140 29 -64 49 -75 142 -78 90 -3 111 2 146 34 32 31 31 97 -3 134 -45 47 -95 31 -95 -30 0 -55 -59 -100 -96 -75 -23 15 -34 52 -28 92 7 45 73 120 105 120 10 0 31 11 46 25 l28 25 -22 19 c-17 14 -40 19 -107 20 -78 2 -88 0 -110 -22z"/>
 <path d="M5680 11061 c0 -5 17 -12 38 -16 34 -6 82 -39 82 -55 0 -4 -33 -10 -72 -14 -124 -12 -138 -15 -167 -37 -90 -66 -10 -207 138 -243 78 -19 131 -20 165 -5 24 11 25 16 23 88 -2 73 0 79 31 118 41 53 42 91 3 131 -21 20 -43 31 -77 36 -68 9 -164 7 -164 -3z"/>
 <path d="M6514 11056 c-69 -49 -47 -256 35 -330 17 -16 64 -21 166 -17 27 1 73 45 81 77 9 36 -18 90 -55 109 -33 16 -46 7 -36 -25 9 -30 -21 -80 -49 -80 -31 0 -47 20 -53 67 -8 64 18 110 76 136 55 24 62 38 31 60 -29 20 -168 22 -196 3z"/>
 <path d="M7335 11034 c-17 -41 -20 -168 -5 -209 5 -14 12 -37 14 -52 5 -25 31 -50 68 -65 9 -4 54 -6 99 -4 78 2 83 4 110 34 32 36 36 66 15 117 -10 22 -24 37 -40 41 -32 8 -56 -1 -56 -20 0 -8 -9 -35 -20 -60 -24 -57 -59 -70 -95 -36 -36 34 -39 55 -15 104 21 44 76 96 102 96 23 0 58 30 58 50 0 29 -26 37 -127 39 l-92 2 -16 -37z"/>
 <path d="M7892 11039 c-42 -45 -97 -155 -111 -225 -11 -53 -11 -65 3 -92 31 -61 75 -36 130 73 20 39 36 74 36 79 0 5 10 29 21 53 14 29 27 43 37 41 18 -3 51 -83 58 -138 7 -54 45 -120 70 -120 12 0 26 6 32 13 18 21 17 79 -1 114 -9 18 -17 37 -17 42 0 19 -59 98 -109 144 -63 59 -104 64 -149 16z"/>
 <path d="M4610 10556 c-9 -12 -4 -18 29 -35 32 -17 59 -21 131 -21 88 0 90 1 90 24 0 20 -7 25 -57 35 -81 16 -178 14 -193 -3z"/>
 <path d="M9540 9906 c-30 -13 -85 -71 -210 -221 -89 -107 -103 -128 -133 -191 -23 -48 -51 -64 -93 -51 -30 9 -37 8 -59 -13 -14 -13 -25 -29 -25 -36 0 -6 -7 -25 -15 -40 -8 -16 -15 -37 -15 -47 0 -10 -10 -37 -21 -60 -52 -102 -115 -182 -255 -322 -145 -145 -206 -222 -250 -315 -46 -98 -82 -198 -91 -255 -3 -16 -11 -42 -19 -57 -8 -15 -14 -36 -14 -47 0 -11 -8 -42 -19 -68 -10 -26 -19 -52 -19 -58 -1 -5 -8 -26 -16 -45 -8 -19 -24 -60 -36 -90 -11 -30 -27 -68 -35 -85 -8 -16 -23 -52 -35 -80 -12 -27 -88 -185 -169 -350 -81 -165 -157 -320 -169 -345 -11 -25 -35 -76 -52 -113 -18 -37 -33 -73 -34 -80 -1 -7 -9 -23 -19 -37 -9 -13 -17 -31 -17 -38 0 -8 -6 -26 -14 -40 -22 -44 -48 -106 -52 -126 -2 -10 -10 -29 -19 -42 -8 -13 -15 -30 -15 -39 0 -9 -7 -29 -15 -44 -8 -16 -16 -39 -18 -52 -3 -13 -12 -40 -20 -59 -31 -72 -47 -116 -50 -135 -2 -11 -11 -35 -20 -52 -10 -18 -17 -35 -17 -38 1 -21 -2 -27 -20 -45 -19 -19 -33 -20 -243 -20 -122 0 -237 4 -255 9 -18 6 -59 12 -90 16 -71 7 -178 49 -267 106 -16 10 -41 23 -55 29 -14 6 -38 18 -55 27 -21 12 -54 17 -115 17 -78 1 -88 -1 -122 -27 -59 -45 -148 -202 -148 -260 0 -10 -6 -33 -14 -52 -8 -19 -17 -57 -20 -85 -3 -28 -10 -59 -16 -69 -5 -10 -12 -47 -15 -82 -4 -35 -13 -89 -20 -119 -7 -30 -16 -96 -19 -145 -3 -50 -8 -104 -12 -121 -3 -17 0 -58 6 -90 25 -120 73 -134 470 -137 255 -2 290 -4 330 -21 81 -34 108 -76 80 -124 -5 -9 -15 -28 -20 -42 -13 -31 -25 -50 -75 -124 -67 -98 -115 -186 -182 -336 -8 -19 -22 -48 -29 -63 -8 -16 -14 -34 -14 -40 -1 -7 -9 -30 -20 -52 -11 -22 -19 -46 -20 -53 0 -8 -6 -26 -14 -40 -12 -23 -29 -72 -75 -217 -5 -16 -17 -57 -26 -90 -9 -33 -23 -80 -31 -105 -9 -25 -19 -68 -24 -96 -4 -28 -13 -61 -19 -72 -6 -11 -11 -45 -11 -74 -1 -29 -7 -82 -16 -118 -11 -51 -16 -172 -20 -545 -3 -264 -9 -523 -15 -575 -21 -202 -23 -213 -75 -291 -27 -41 -56 -90 -66 -109 -15 -31 -44 -148 -51 -205 -4 -30 -62 -129 -97 -165 -23 -24 -36 -30 -53 -24 -27 8 -18 -3 -60 76 -32 59 -66 170 -80 263 -6 32 -29 77 -91 169 -68 103 -86 232 -85 616 0 151 -5 340 -10 420 -6 80 -13 186 -16 235 -6 91 -34 257 -61 351 -8 28 -14 61 -14 73 0 12 -6 34 -14 49 -7 15 -16 46 -20 70 -3 23 -11 52 -17 64 -6 12 -14 37 -16 55 -3 19 -11 46 -19 61 -8 15 -14 35 -14 45 0 10 -7 34 -16 55 -9 20 -17 46 -19 57 -6 29 -36 127 -46 146 -4 9 -19 51 -34 93 -25 74 -86 202 -123 258 -9 14 -44 66 -77 115 -66 97 -72 107 -106 173 -29 55 -30 66 -17 95 17 37 38 43 258 65 52 5 207 9 343 10 l248 0 -2 218 c-1 119 -6 246 -11 282 -49 327 -61 375 -129 510 -37 73 -117 162 -160 181 -54 22 -136 -3 -254 -77 -22 -13 -46 -27 -54 -31 -8 -4 -37 -21 -65 -40 -28 -18 -56 -33 -64 -33 -7 0 -26 -7 -42 -15 -15 -8 -45 -17 -67 -19 -21 -3 -62 -10 -92 -16 -29 -5 -151 -10 -270 -10 l-216 0 -23 33 c-12 18 -22 40 -22 48 -1 8 -9 32 -20 54 -11 22 -19 45 -20 52 0 12 -12 43 -47 121 -9 20 -18 48 -20 61 -2 13 -11 33 -19 45 -8 11 -14 28 -14 38 0 10 -9 35 -20 55 -11 21 -20 43 -20 50 0 6 -6 24 -14 40 -7 15 -21 45 -30 66 -8 20 -22 52 -30 70 -8 17 -24 55 -36 82 -21 50 -27 63 -48 100 -6 11 -27 56 -47 100 -20 44 -53 112 -73 150 -74 144 -105 202 -142 270 -21 39 -50 95 -65 125 -15 30 -31 62 -36 70 -5 8 -14 26 -19 40 -6 14 -17 40 -26 57 -8 18 -21 49 -29 68 -8 19 -22 50 -30 68 -22 48 -46 118 -54 157 -4 19 -15 49 -24 67 -9 18 -17 39 -17 48 0 20 -37 130 -56 167 -8 15 -12 28 -9 28 9 0 -95 207 -141 278 -51 79 -136 158 -177 166 -51 10 -128 97 -181 206 -15 30 -31 62 -36 70 -5 8 -25 44 -46 80 -49 85 -79 117 -119 124 -42 8 -85 42 -85 66 0 10 -6 25 -13 32 -6 7 -25 32 -41 56 -36 53 -184 206 -246 254 -62 49 -88 56 -94 26 -24 -125 -36 -1208 -16 -1501 5 -78 12 -200 14 -272 3 -71 12 -155 21 -185 8 -30 15 -70 15 -89 0 -18 6 -54 14 -80 57 -183 56 -177 54 -366 l-3 -180 31 -60 c60 -115 81 -151 120 -209 21 -31 44 -65 49 -74 14 -23 48 -74 58 -87 4 -5 71 -97 150 -203 164 -222 263 -360 347 -482 19 -28 40 -57 45 -63 20 -25 55 -76 55 -82 0 -3 16 -28 35 -55 19 -27 35 -53 35 -56 0 -3 9 -17 20 -31 11 -14 20 -34 20 -43 0 -56 -330 -409 -535 -573 -111 -89 -241 -162 -308 -172 -21 -4 -53 -13 -72 -21 -19 -8 -47 -14 -63 -14 -44 0 -117 -36 -157 -77 -65 -67 -39 -137 70 -191 37 -18 69 -23 330 -51 39 -4 84 -15 102 -24 18 -10 38 -17 45 -17 11 0 77 -32 227 -110 50 -26 62 -28 140 -25 47 2 103 11 123 19 21 9 48 16 61 16 14 0 42 7 63 16 56 23 229 35 331 22 89 -11 192 -71 293 -169 32 -31 100 -115 100 -124 0 -4 13 -24 29 -44 39 -49 141 -232 141 -252 0 -5 8 -21 17 -36 10 -14 18 -33 20 -42 1 -8 6 -24 12 -36 19 -36 43 -109 56 -168 7 -32 16 -66 20 -75 6 -16 11 -61 34 -327 6 -66 12 -415 14 -775 l5 -655 25 -45 c14 -25 40 -72 57 -105 226 -432 293 -538 415 -661 49 -48 180 -154 270 -217 22 -15 72 -50 110 -78 181 -129 420 -288 483 -321 53 -28 57 -23 66 81 3 42 11 92 16 111 6 19 10 55 10 80 0 25 7 73 16 105 9 33 16 76 15 95 0 19 6 91 15 160 11 88 14 158 9 237 -10 167 20 273 77 273 37 0 48 -56 57 -299 5 -126 11 -233 14 -238 3 -4 11 -71 17 -148 7 -77 17 -148 22 -158 5 -10 11 -33 13 -51 3 -18 20 -57 40 -86 31 -46 35 -59 35 -115 0 -35 4 -67 10 -70 15 -9 86 34 286 174 28 20 92 65 143 101 181 127 353 264 446 355 31 31 119 136 125 149 3 6 17 29 31 51 31 48 32 51 132 252 44 87 83 165 88 173 5 8 12 22 15 30 3 8 28 60 55 115 l48 100 4 805 c3 585 7 819 16 855 7 28 14 73 16 100 3 28 11 68 20 90 8 22 16 49 18 60 7 37 99 228 150 311 116 185 293 361 417 414 52 22 62 23 210 16 85 -4 205 -13 266 -20 188 -22 336 -4 435 55 27 16 55 29 62 29 7 0 27 9 45 20 18 11 48 20 67 20 18 0 36 4 39 9 7 10 64 21 134 26 26 1 65 8 87 14 22 6 61 13 88 16 99 12 145 67 134 162 -9 82 -75 121 -222 130 -78 5 -100 11 -170 45 -164 80 -331 205 -505 378 -109 108 -270 313 -270 344 0 8 19 42 43 76 23 34 49 72 57 85 13 21 51 76 181 265 21 30 59 84 84 120 25 36 62 90 83 120 20 30 41 60 47 67 5 6 26 35 45 63 36 53 104 148 117 165 4 6 21 30 38 55 16 25 32 47 35 50 13 11 143 212 165 255 14 25 25 53 25 61 0 8 7 29 16 45 12 25 15 64 14 199 0 115 4 191 15 242 8 40 17 98 20 128 3 30 12 78 19 105 8 28 17 84 20 125 3 41 10 101 15 134 33 191 35 1565 2 1695 -5 20 -12 48 -15 62 -7 33 -23 40 -56 25z"/>
 </g>
<g id="layer105" fill="#000000" stroke="none" fill-opacity="0.68">
 <path d="M4113 11312 c10 -10 17 -25 17 -33 0 -8 6 -24 14 -34 21 -31 17 -124 -7 -157 -11 -14 -28 -28 -37 -31 -10 -3 -30 -23 -44 -46 -21 -33 -26 -53 -26 -110 0 -49 4 -72 15 -81 8 -7 15 -20 15 -29 0 -10 14 -30 31 -47 27 -26 38 -29 115 -34 l85 -5 40 41 41 41 -49 6 c-117 15 -193 58 -193 112 0 46 87 115 145 115 32 0 31 7 -5 45 -27 28 -32 41 -37 106 -7 81 -29 123 -69 133 -13 4 -24 11 -24 16 0 6 -10 10 -22 10 -20 0 -20 -1 -5 -18z"/>
 <path d="M1386 11274 c-3 -26 -11 -53 -16 -59 -16 -19 -30 -165 -30 -316 0 -114 3 -139 16 -150 22 -18 290 -23 323 -6 21 11 23 19 24 108 1 88 -2 99 -24 127 -23 30 -92 82 -107 82 -12 0 -82 74 -82 87 0 6 -7 13 -15 17 -8 3 -15 13 -15 21 0 9 -6 26 -12 38 -7 12 -17 37 -23 56 -15 51 -31 49 -39 -5z m215 -296 c20 -27 24 -45 24 -98 0 -53 -4 -71 -24 -97 -24 -32 -61 -43 -87 -25 -19 13 -54 92 -54 123 0 30 20 76 49 112 23 28 64 21 92 -15z"/>
 <path d="M3716 10972 c1 -118 5 -155 19 -181 9 -18 14 -42 12 -52 -3 -12 2 -23 13 -29 30 -16 55 -12 79 14 21 23 23 33 23 156 0 127 -1 132 -27 171 -15 21 -35 39 -44 39 -9 0 -29 7 -45 15 -15 8 -29 15 -30 15 0 0 0 -67 0 -148z"/>
 <path d="M2450 11090 c-19 -10 -41 -22 -49 -26 -40 -20 -88 -108 -78 -141 28 -89 61 -134 136 -185 38 -25 55 -30 108 -30 53 0 68 3 89 23 30 29 74 119 74 154 0 27 -33 96 -60 125 -42 46 -138 101 -175 99 -5 0 -26 -9 -45 -19z m148 -46 c21 -14 22 -23 21 -101 -1 -68 -6 -92 -23 -118 -26 -41 -77 -70 -108 -61 -37 9 -71 71 -65 120 15 130 103 211 175 160z"/>
 <path d="M3155 11100 c-46 -17 -54 -40 -58 -161 -3 -97 -7 -120 -26 -151 -25 -41 -44 -47 -78 -23 -20 14 -21 22 -18 127 3 122 -2 145 -38 184 l-24 26 -28 -25 c-26 -22 -28 -30 -30 -98 -2 -61 2 -82 21 -119 13 -25 24 -49 24 -55 0 -18 75 -95 92 -95 9 0 20 -5 23 -10 4 -6 21 -16 39 -24 18 -8 52 -33 75 -57 34 -35 41 -49 37 -70 -4 -19 1 -32 20 -48 37 -32 49 -26 63 32 18 69 26 354 11 373 -7 7 -14 40 -17 74 -3 33 -12 65 -19 71 -8 6 -14 17 -14 23 0 18 -34 34 -55 26z"/>
 <path d="M4640 11090 c-19 -10 -42 -22 -50 -26 -8 -4 -30 -23 -47 -43 -28 -31 -33 -43 -33 -87 0 -34 5 -56 15 -64 8 -7 15 -23 15 -36 0 -13 5 -24 10 -24 6 0 24 -13 40 -30 16 -16 32 -30 35 -30 3 0 18 -9 34 -21 39 -29 164 -34 188 -7 9 10 22 18 30 18 7 0 13 9 13 19 0 10 7 21 15 25 12 4 15 23 15 85 l0 79 -49 50 c-54 55 -144 112 -176 111 -11 0 -36 -9 -55 -19z m159 -79 c19 -12 27 -117 12 -151 -46 -106 -124 -141 -172 -77 -30 40 -34 134 -6 165 9 10 17 22 17 27 0 5 7 17 17 27 18 20 106 26 132 9z"/>
 <path d="M9821 11096 c-19 -6 -56 -32 -83 -58 -44 -43 -48 -50 -48 -95 0 -79 53 -163 135 -213 22 -14 46 -24 53 -22 6 2 28 -1 47 -7 58 -16 118 10 150 64 59 101 14 214 -123 308 -45 32 -85 39 -131 23z m158 -90 c16 -19 12 -153 -5 -167 -8 -6 -14 -16 -14 -21 0 -5 -13 -23 -29 -39 -38 -37 -76 -38 -113 -2 -25 24 -28 34 -28 87 0 50 6 69 30 109 l30 47 59 0 c37 0 63 -5 70 -14z"/>
 <path d="M8780 11028 c-6 -35 -15 -75 -20 -89 -4 -14 -6 -37 -3 -51 3 -14 0 -35 -6 -47 -10 -17 -21 -21 -64 -21 -47 0 -57 4 -87 35 -18 19 -37 32 -42 29 -4 -3 -8 -24 -8 -48 0 -52 -30 -86 -78 -86 -26 0 -37 7 -59 41 -26 40 -27 42 -10 71 9 16 17 35 17 42 0 18 60 72 100 89 63 28 67 33 41 54 -31 25 -149 23 -186 -4 -13 -10 -25 -21 -25 -25 0 -4 -6 -13 -13 -20 -27 -27 -32 -49 -27 -127 l5 -80 46 -43 47 -43 76 1 c73 1 79 3 112 35 32 31 41 34 100 36 40 1 69 -4 77 -11 7 -7 39 -16 71 -20 33 -3 65 -11 72 -17 7 -6 53 -15 103 -22 121 -15 121 -15 123 129 2 97 -1 115 -22 159 -24 50 -57 95 -71 95 -13 0 -18 -44 -20 -159 -1 -97 -4 -118 -23 -146 -12 -20 -29 -34 -42 -35 -27 0 -64 35 -64 63 0 12 -7 45 -16 72 -8 28 -14 64 -12 82 1 18 -1 35 -5 39 -4 4 -7 14 -7 23 -1 22 -35 61 -53 61 -10 0 -18 -20 -27 -62z"/>
 <path d="M9402 11060 c-12 -16 -22 -38 -22 -48 0 -10 -3 -22 -6 -25 -7 -7 -10 -35 -20 -176 -4 -56 -1 -98 8 -128 l13 -45 49 6 c27 3 56 12 66 21 9 8 21 15 27 15 10 0 43 32 43 42 0 2 -19 24 -41 48 l-42 44 7 122 c3 67 3 129 0 138 -11 27 -58 20 -82 -14z"/>
 <path d="M1926 11037 c-30 -35 -28 -25 -28 -181 0 -92 4 -122 16 -134 22 -22 231 -24 258 -2 19 15 19 16 -6 39 -21 20 -28 22 -40 11 -24 -19 -73 8 -96 53 -11 21 -20 43 -20 49 0 16 41 100 57 116 34 35 2 73 -65 77 -46 3 -53 0 -76 -28z"/>
 <path d="M3475 11034 c-46 -60 -52 -290 -9 -321 27 -20 40 -16 69 18 25 30 26 35 19 115 -5 68 -4 88 10 108 9 14 16 43 16 65 0 38 -1 39 -40 43 -36 3 -44 0 -65 -28z"/>
 <path d="M5108 11035 c-33 -44 -38 -158 -9 -218 12 -24 21 -48 21 -53 0 -6 15 -21 33 -34 26 -20 44 -25 97 -25 56 0 71 4 108 29 38 27 42 33 42 70 0 32 -7 47 -30 70 -29 28 -30 29 -50 11 -12 -11 -20 -31 -20 -50 0 -50 -33 -85 -80 -85 -34 0 -42 4 -56 31 -20 40 -11 110 19 152 12 16 50 43 85 60 63 31 63 31 43 50 -16 17 -34 21 -100 21 -79 1 -82 0 -103 -29z"/>
 <path d="M5765 11061 c-3 -5 3 -12 13 -15 10 -4 29 -17 42 -31 19 -21 21 -27 10 -40 -11 -13 -32 -16 -111 -13 -92 2 -99 1 -138 -26 -38 -27 -41 -32 -41 -76 0 -43 4 -51 45 -89 47 -44 89 -66 117 -62 9 1 35 -3 57 -9 29 -8 52 -8 80 0 44 12 54 31 34 70 -15 30 -17 57 -3 65 6 3 10 13 10 21 0 8 14 33 30 56 39 53 38 69 -5 111 -42 41 -124 63 -140 38z"/>
 <path d="M6513 11036 c-21 -27 -25 -43 -26 -104 0 -39 3 -75 6 -79 4 -3 7 -16 7 -28 0 -13 7 -28 15 -35 8 -7 15 -19 15 -26 0 -8 4 -14 9 -14 5 0 17 -7 26 -17 9 -9 39 -18 67 -21 62 -6 135 26 144 64 8 30 -3 74 -23 97 -22 23 -37 22 -30 -4 6 -20 -16 -65 -38 -81 -16 -12 -62 -9 -73 5 -5 6 -10 45 -11 85 -2 70 0 75 30 103 17 16 42 32 55 35 60 15 9 48 -78 50 -67 1 -70 0 -95 -30z"/>
 <path d="M7360 11055 c-18 -23 -30 -143 -19 -193 5 -28 9 -56 8 -64 -3 -28 3 -37 48 -67 58 -39 117 -41 183 -7 44 22 45 24 48 75 3 43 -1 57 -17 72 -32 30 -45 23 -70 -44 -13 -34 -29 -65 -35 -69 -22 -15 -76 -8 -96 12 -27 27 -28 118 -2 142 9 10 31 31 47 48 17 16 37 30 45 30 22 0 60 29 60 45 0 7 -10 17 -22 21 -34 11 -168 11 -178 -1z"/>
 <path d="M10318 11053 c-24 -30 -42 -145 -28 -187 6 -20 10 -44 8 -54 -4 -26 78 -111 102 -105 9 3 34 0 53 -5 38 -11 101 -2 120 17 7 7 5 17 -5 33 -9 14 -15 43 -14 70 1 38 6 50 28 68 16 12 38 20 50 19 53 -7 65 41 21 83 -29 26 -106 68 -125 68 -6 0 -3 -9 7 -20 16 -18 17 -21 1 -44 -17 -27 -70 -42 -110 -32 -14 3 -38 17 -53 31 l-28 25 22 19 22 19 -22 6 c-31 8 -32 8 -49 -11z"/>
 <path d="M7918 11048 c-20 -17 -88 -115 -88 -128 0 -6 -6 -21 -14 -33 -16 -26 -30 -128 -21 -157 4 -14 15 -20 35 -20 25 0 32 7 54 54 14 30 26 57 26 61 0 3 9 15 20 27 10 12 17 25 14 30 -8 12 37 96 54 103 8 3 18 2 23 -1 19 -11 48 -83 47 -116 -1 -40 48 -148 67 -148 8 0 21 10 30 23 13 21 13 28 -6 78 -12 30 -25 61 -30 69 -5 8 -13 24 -18 35 -11 25 -67 83 -108 113 -36 25 -62 28 -85 10z"/>
 <path d="M4700 10550 c-47 -3 -78 -7 -69 -8 9 -1 22 -9 29 -17 9 -11 35 -15 101 -15 72 0 89 3 89 15 0 8 -9 15 -19 15 -11 0 -23 5 -26 10 -3 6 -9 9 -13 8 -4 -1 -45 -5 -92 -8z"/>
 <path d="M9540 9893 c-17 -7 -68 -59 -121 -124 -20 -24 -48 -56 -62 -71 -34 -37 -117 -145 -117 -153 0 -4 -9 -18 -20 -32 -11 -14 -20 -32 -20 -40 0 -37 -69 -65 -109 -43 -21 11 -61 -20 -61 -48 0 -10 -8 -29 -17 -42 -10 -14 -16 -35 -15 -47 3 -21 -35 -104 -51 -111 -4 -2 -14 -18 -21 -35 -13 -30 -27 -47 -116 -142 -65 -69 -138 -135 -149 -135 -6 0 -11 -7 -11 -15 0 -7 -6 -18 -13 -22 -13 -8 -102 -121 -124 -158 -32 -52 -63 -118 -63 -135 0 -9 -6 -23 -14 -29 -7 -6 -16 -30 -20 -52 -4 -22 -14 -52 -23 -66 -9 -14 -16 -39 -15 -56 1 -16 -4 -40 -13 -53 -8 -13 -15 -36 -15 -51 0 -16 -11 -48 -24 -73 -13 -25 -21 -51 -19 -57 3 -7 -3 -23 -11 -35 -9 -12 -16 -32 -16 -45 0 -12 -5 -25 -11 -28 -10 -7 -31 -50 -33 -70 -2 -10 -13 -37 -47 -111 -11 -23 -19 -46 -19 -51 0 -6 -7 -16 -15 -23 -8 -7 -15 -23 -15 -37 0 -13 -7 -26 -15 -29 -8 -4 -15 -14 -15 -23 0 -9 -9 -29 -20 -46 -11 -16 -20 -38 -20 -48 0 -10 -7 -20 -15 -23 -8 -4 -15 -12 -15 -20 0 -14 -45 -103 -61 -118 -5 -6 -9 -18 -9 -27 0 -9 -6 -22 -14 -28 -8 -7 -18 -25 -21 -41 -3 -15 -14 -35 -24 -45 -11 -9 -17 -24 -14 -34 2 -9 -3 -23 -11 -30 -9 -8 -16 -21 -16 -30 0 -9 -9 -29 -20 -46 -11 -16 -20 -37 -20 -46 0 -9 -7 -22 -15 -29 -8 -7 -15 -21 -15 -32 0 -11 -9 -31 -20 -45 -11 -14 -20 -34 -20 -45 0 -11 -7 -26 -15 -34 -8 -9 -15 -26 -15 -38 0 -13 -6 -29 -14 -35 -8 -7 -17 -27 -20 -45 -4 -19 -13 -39 -21 -46 -8 -7 -15 -25 -15 -40 0 -15 -7 -33 -15 -40 -8 -7 -15 -22 -15 -34 0 -12 -9 -38 -20 -59 -11 -20 -20 -48 -20 -61 0 -13 -7 -29 -15 -36 -8 -7 -15 -23 -15 -36 0 -13 -9 -41 -20 -61 -11 -21 -20 -47 -20 -59 0 -12 -7 -27 -15 -34 -8 -7 -15 -25 -15 -40 0 -15 -6 -33 -14 -39 -9 -7 -99 -12 -277 -14 -235 -2 -269 -1 -305 15 -26 11 -53 16 -71 12 -20 -4 -42 1 -69 15 -21 12 -46 21 -55 21 -9 0 -19 7 -23 15 -3 8 -14 15 -24 15 -10 0 -28 8 -40 18 -11 10 -38 26 -59 36 -21 10 -51 25 -66 32 -17 8 -61 14 -108 14 -71 0 -84 -3 -115 -26 -39 -31 -121 -150 -116 -172 2 -8 -5 -23 -15 -34 -10 -12 -16 -31 -15 -48 2 -16 -3 -44 -11 -62 -26 -57 -36 -96 -30 -117 3 -12 -4 -40 -15 -64 -15 -31 -19 -55 -15 -89 3 -27 0 -61 -7 -80 -23 -59 -43 -338 -26 -356 3 -3 6 -12 6 -21 0 -28 44 -57 105 -70 33 -7 78 -17 100 -21 22 -5 159 -9 304 -10 240 -2 268 -4 302 -21 77 -41 90 -82 50 -160 -38 -74 -79 -139 -94 -150 -9 -6 -26 -34 -49 -79 -7 -14 -16 -27 -20 -30 -4 -3 -12 -17 -17 -30 -6 -14 -15 -32 -20 -40 -9 -17 -41 -86 -64 -140 -8 -19 -24 -56 -36 -81 -12 -25 -21 -52 -21 -60 0 -8 -7 -23 -15 -33 -8 -11 -15 -29 -15 -41 0 -11 -6 -29 -14 -40 -7 -11 -16 -38 -20 -59 -4 -21 -15 -50 -24 -64 -9 -14 -15 -34 -14 -45 2 -10 -4 -29 -12 -42 -9 -13 -16 -37 -16 -52 0 -16 -10 -46 -21 -68 -12 -22 -21 -54 -21 -71 1 -19 -6 -38 -18 -49 -14 -12 -17 -25 -13 -51 3 -20 -1 -52 -10 -77 -20 -53 -30 -116 -32 -192 -1 -33 -7 -85 -15 -115 -11 -43 -14 -166 -15 -570 0 -360 -4 -525 -12 -545 -6 -17 -14 -51 -18 -77 -3 -25 -13 -52 -20 -58 -8 -7 -15 -17 -15 -22 0 -9 -39 -69 -52 -78 -4 -3 -12 -17 -17 -30 -6 -14 -15 -32 -20 -40 -5 -8 -14 -42 -19 -75 -16 -91 -36 -163 -50 -177 -6 -6 -12 -17 -12 -23 0 -7 -9 -23 -20 -36 -59 -71 -62 -73 -97 -72 -19 1 -36 3 -37 5 -20 23 -86 165 -86 184 0 13 -7 36 -16 50 -12 17 -15 38 -11 69 3 35 0 51 -14 69 -10 13 -23 34 -29 47 -5 13 -30 52 -55 87 -28 38 -45 72 -44 85 2 12 -4 36 -13 52 -12 24 -15 73 -17 235 -3 302 -8 458 -16 471 -4 6 -9 83 -10 170 -2 87 -6 163 -10 169 -3 5 -5 52 -4 103 1 68 -3 101 -14 124 -10 19 -16 52 -14 90 1 41 -4 68 -15 85 -10 14 -20 50 -24 79 -4 30 -14 64 -22 77 -9 13 -12 34 -9 50 4 19 -1 40 -14 61 -11 18 -19 38 -18 44 3 18 -12 70 -27 92 -8 11 -14 32 -14 48 0 15 -7 38 -15 50 -8 12 -14 31 -13 42 1 11 -8 41 -20 67 -12 26 -22 58 -22 71 0 14 -7 30 -16 37 -8 7 -14 23 -12 35 1 12 -5 32 -13 46 -9 13 -20 40 -24 59 -4 18 -14 40 -21 48 -8 7 -14 22 -14 31 0 10 -7 24 -15 31 -8 7 -15 20 -15 30 0 9 -9 25 -20 35 -11 10 -20 22 -20 27 0 8 -36 64 -50 78 -12 12 -47 67 -53 83 -3 9 -11 17 -16 17 -5 0 -14 12 -20 28 -6 15 -23 47 -37 72 -28 49 -35 119 -15 144 6 8 26 14 44 14 18 0 51 8 75 17 25 10 54 15 72 12 16 -4 32 -2 35 3 4 6 125 10 310 10 l304 0 3 198 c2 147 0 207 -11 237 -7 22 -15 86 -16 143 -2 76 -7 109 -20 128 -9 14 -15 35 -12 45 3 10 1 22 -4 25 -5 3 -9 16 -9 30 0 14 -7 36 -16 49 -9 14 -14 34 -11 44 3 12 -3 27 -14 37 -10 9 -19 25 -19 35 0 10 -5 21 -11 25 -6 3 -17 22 -25 40 -8 19 -19 34 -24 34 -6 0 -10 5 -10 11 0 6 -18 27 -41 47 -34 31 -50 38 -97 42 -44 4 -63 1 -83 -12 -15 -10 -37 -22 -50 -28 -13 -6 -37 -19 -54 -30 -16 -11 -43 -27 -60 -35 -16 -9 -43 -24 -60 -35 -16 -11 -41 -24 -55 -30 -14 -6 -38 -17 -53 -26 -16 -9 -38 -14 -49 -11 -12 3 -37 -1 -57 -10 -30 -13 -82 -16 -301 -17 l-265 -1 -22 25 c-13 14 -22 34 -21 46 2 11 -5 32 -14 46 -10 14 -20 39 -24 54 -4 16 -14 39 -22 52 -8 12 -12 31 -9 41 3 12 -3 27 -14 37 -10 9 -19 27 -19 38 0 12 -9 38 -20 59 -11 20 -20 45 -20 54 0 10 -7 27 -15 37 -8 11 -15 26 -15 34 0 8 -10 36 -21 61 -12 25 -27 60 -34 76 -26 62 -57 131 -69 155 -7 14 -16 37 -20 53 -3 15 -11 27 -16 27 -6 0 -10 9 -10 21 0 11 -9 32 -20 46 -11 14 -20 34 -20 43 0 10 -7 23 -15 30 -8 7 -15 21 -15 31 0 9 -7 24 -15 32 -7 8 -17 26 -20 40 -4 15 -13 31 -21 38 -8 6 -14 20 -14 30 0 10 -5 21 -10 24 -6 4 -17 21 -25 38 -8 18 -19 39 -24 47 -5 8 -12 22 -16 30 -3 8 -23 47 -44 85 -22 39 -51 95 -66 125 -15 30 -31 62 -36 70 -5 8 -12 22 -15 30 -3 8 -14 32 -24 52 -11 20 -20 43 -20 51 0 8 -7 20 -15 27 -8 7 -15 22 -15 34 0 12 -7 31 -15 42 -8 10 -15 26 -15 34 0 8 -9 32 -20 53 -11 20 -20 49 -20 65 0 15 -7 38 -16 50 -9 13 -13 29 -11 36 3 7 -5 35 -18 62 -14 27 -25 61 -25 75 0 15 -7 32 -15 39 -8 7 -15 25 -15 40 0 15 -7 33 -15 40 -8 7 -15 18 -15 24 0 6 -9 28 -20 49 -11 20 -20 44 -20 52 0 9 -6 18 -14 21 -8 3 -17 17 -21 32 -4 15 -10 29 -13 32 -12 9 -52 69 -52 77 0 5 -8 16 -18 25 -9 8 -34 34 -55 56 -26 28 -48 41 -75 45 -56 9 -149 115 -192 217 -5 14 -15 32 -20 40 -6 8 -13 22 -16 30 -3 8 -10 22 -15 30 -5 8 -13 25 -19 38 -5 12 -14 28 -20 35 -57 71 -72 85 -105 90 -42 7 -90 49 -82 71 4 10 -1 21 -13 28 -11 7 -20 16 -20 21 0 12 -75 105 -133 166 -74 77 -183 163 -203 159 -14 -3 -17 -34 -22 -268 -8 -358 -8 -644 0 -1156 6 -363 9 -438 23 -470 9 -22 15 -52 13 -69 -3 -42 12 -115 29 -142 8 -12 13 -37 12 -55 -2 -19 5 -44 15 -61 10 -15 16 -35 14 -45 -3 -9 0 -51 7 -92 7 -47 8 -92 2 -120 -15 -78 -12 -163 6 -195 9 -17 21 -41 27 -55 5 -14 14 -33 20 -42 5 -10 15 -26 20 -35 6 -10 16 -29 22 -43 7 -14 24 -41 39 -60 14 -19 29 -45 33 -57 4 -11 13 -24 21 -27 8 -3 15 -10 15 -17 0 -6 8 -21 18 -34 9 -12 24 -33 32 -45 36 -52 90 -126 105 -141 8 -9 15 -19 15 -24 0 -5 7 -15 15 -24 31 -32 125 -162 125 -171 0 -6 7 -13 15 -16 8 -4 15 -12 15 -20 0 -7 6 -17 13 -21 14 -10 51 -61 60 -85 3 -10 11 -18 17 -18 5 0 10 -5 10 -11 0 -10 13 -29 60 -86 6 -7 10 -17 10 -22 0 -6 6 -14 13 -18 16 -10 57 -69 57 -82 0 -6 6 -14 13 -18 13 -8 57 -68 57 -78 0 -3 16 -28 35 -55 19 -27 35 -54 35 -59 0 -5 7 -14 15 -21 21 -17 21 -108 0 -116 -8 -4 -15 -10 -15 -16 0 -27 -196 -239 -381 -414 -75 -71 -230 -190 -256 -198 -13 -4 -23 -12 -23 -17 0 -5 -6 -9 -13 -9 -7 0 -30 -9 -51 -21 -21 -11 -47 -18 -57 -16 -9 3 -31 -3 -47 -14 -17 -10 -48 -18 -71 -17 -23 0 -58 -9 -81 -21 -22 -11 -47 -21 -54 -21 -25 0 -96 -80 -96 -109 0 -29 64 -101 90 -101 7 0 22 -7 32 -17 14 -12 34 -16 83 -14 36 1 70 -1 76 -5 6 -3 30 -8 53 -9 22 -1 64 -8 91 -15 28 -7 62 -12 76 -11 14 1 34 -8 43 -18 10 -11 25 -17 33 -14 9 3 34 -3 57 -15 22 -11 48 -23 56 -26 8 -4 29 -15 45 -25 17 -11 59 -34 93 -52 55 -27 71 -31 114 -26 27 4 64 13 81 22 18 9 52 19 77 22 25 3 55 12 67 19 12 7 41 13 65 12 24 -1 76 7 115 17 70 19 75 19 135 1 35 -9 77 -19 93 -20 58 -5 167 -76 244 -160 77 -83 101 -112 101 -120 0 -4 13 -25 30 -46 16 -20 34 -48 40 -61 6 -13 19 -37 29 -54 34 -53 71 -126 71 -140 0 -7 7 -18 15 -25 8 -7 15 -22 15 -34 0 -11 9 -34 20 -51 11 -16 20 -42 20 -56 0 -15 7 -32 16 -40 10 -8 14 -22 10 -40 -3 -16 3 -42 15 -65 11 -22 18 -47 15 -56 -2 -10 0 -21 6 -24 5 -3 8 -34 7 -67 -1 -34 4 -75 12 -92 10 -24 13 -193 13 -790 1 -748 1 -760 21 -790 28 -40 36 -55 90 -160 49 -95 59 -115 75 -142 6 -10 17 -31 25 -48 15 -29 23 -45 45 -82 6 -10 16 -29 22 -43 7 -14 15 -27 19 -30 3 -3 17 -25 30 -50 89 -167 222 -293 554 -524 28 -19 82 -58 120 -85 39 -28 79 -55 90 -60 12 -5 27 -16 34 -25 7 -9 20 -16 27 -16 8 0 14 -5 14 -10 0 -6 12 -15 26 -21 15 -5 43 -22 63 -38 20 -16 46 -31 59 -35 12 -4 22 -11 22 -16 0 -4 14 -13 31 -19 49 -17 59 -2 52 77 -4 50 -1 77 11 107 10 22 18 75 20 120 2 48 10 96 21 120 16 35 18 76 20 310 3 283 10 341 49 384 24 27 60 27 87 0 16 -16 19 -28 14 -63 -5 -29 -3 -46 5 -51 8 -5 11 -52 10 -153 -1 -81 0 -154 4 -162 15 -41 26 -145 24 -235 -2 -79 2 -107 16 -133 9 -18 16 -41 15 -50 -3 -36 2 -51 35 -93 29 -39 33 -51 35 -114 1 -38 6 -74 11 -79 11 -11 79 23 155 79 33 24 66 44 73 44 6 1 12 5 12 9 0 10 77 62 91 62 5 0 9 4 9 9 0 4 19 21 42 37 83 56 223 157 238 171 8 8 38 31 65 51 114 83 305 276 305 307 0 5 6 16 14 24 15 18 68 109 89 156 8 17 21 36 30 43 9 8 14 19 11 26 -3 7 2 19 11 26 8 7 15 18 15 24 0 10 57 133 81 176 5 8 12 22 15 30 4 8 30 65 60 125 l54 110 1 825 c1 716 3 830 16 860 9 19 15 54 14 77 -1 24 7 61 19 87 11 25 20 52 20 60 0 8 6 27 14 43 8 15 26 54 41 86 15 31 32 60 36 63 5 3 9 12 9 20 0 8 16 37 35 64 19 27 35 53 35 56 0 11 102 138 159 197 63 66 158 142 210 169 31 16 61 17 300 14 149 -2 281 -8 299 -14 23 -8 56 -8 110 0 42 5 94 11 114 13 21 1 43 7 50 12 12 9 82 46 151 79 16 8 38 14 50 14 12 0 42 10 67 21 32 15 61 20 100 17 37 -2 67 3 92 15 22 10 55 16 85 15 48 -2 130 29 154 58 6 7 10 43 10 79 0 76 -16 101 -73 112 -18 3 -44 13 -58 22 -17 11 -48 16 -107 16 -52 0 -87 5 -94 13 -7 6 -20 12 -28 13 -9 0 -37 12 -62 27 -99 57 -145 86 -159 99 -8 8 -38 31 -66 51 -110 80 -344 295 -344 316 0 6 -14 24 -30 39 -16 16 -41 48 -56 70 -16 23 -40 58 -55 77 -36 47 -32 82 16 153 22 32 45 66 50 75 6 9 25 36 43 59 17 23 32 44 32 48 0 10 44 69 58 78 6 4 12 12 12 18 0 8 35 64 50 79 12 12 50 70 50 76 0 4 16 26 35 50 19 23 35 46 35 50 0 4 16 26 35 50 19 23 35 45 35 49 0 3 5 11 10 18 38 45 90 116 90 122 0 5 16 27 35 51 19 23 35 45 35 49 0 4 23 35 50 70 28 35 50 66 50 69 0 7 38 63 57 83 6 7 15 22 18 33 3 11 11 20 16 20 5 0 9 6 9 13 0 8 9 24 20 37 11 13 20 30 20 40 0 9 5 21 12 28 25 25 40 112 50 282 6 96 10 195 9 220 0 25 8 70 19 101 12 36 17 69 13 96 -3 24 0 49 8 64 15 26 29 136 29 211 -1 26 6 75 16 110 14 56 16 147 16 778 0 639 -2 723 -17 783 -9 37 -14 75 -11 83 6 17 -14 54 -29 53 -5 0 -17 -3 -25 -6z"/>
 </g>
<g id="layer106" fill="#000000" stroke="none">
 <path d="M4115 11320 c3 -5 8 -10 11 -10 2 0 4 5 4 10 0 6 -5 10 -11 10 -5 0 -7 -4 -4 -10z"/>
 <path d="M1396 11303 c-3 -3 -6 -28 -6 -54 0 -32 -5 -49 -15 -53 -13 -4 -15 -39 -15 -226 l0 -220 70 0 70 0 -11 27 c-6 15 -16 31 -22 35 -7 4 -12 32 -12 68 0 48 4 64 18 71 9 6 17 18 17 27 0 28 21 42 61 42 28 0 39 -5 44 -19 3 -11 12 -22 20 -25 12 -4 15 -26 15 -96 0 -51 -4 -90 -10 -90 -5 0 -14 -9 -20 -20 -10 -19 -8 -20 40 -20 l50 0 0 105 c0 85 -3 107 -15 111 -8 4 -15 13 -15 21 0 8 -15 20 -34 28 -18 8 -36 21 -39 30 -4 8 -14 15 -22 15 -18 0 -75 52 -75 68 0 5 -9 19 -20 32 -11 13 -20 29 -20 35 0 7 -7 18 -15 25 -8 7 -15 27 -15 46 0 32 -11 50 -24 37z"/>
 <path d="M4130 11286 c0 -9 9 -24 20 -33 16 -14 20 -30 20 -82 0 -67 -6 -77 -80 -134 -39 -31 -60 -76 -60 -131 0 -33 5 -60 14 -68 7 -8 17 -25 21 -38 4 -14 22 -37 39 -52 28 -24 39 -27 108 -28 66 0 82 3 103 22 34 30 31 38 -14 38 -22 0 -46 7 -55 15 -8 8 -24 15 -35 15 -12 0 -30 9 -41 20 -11 11 -24 20 -30 20 -5 0 -10 24 -10 53 0 56 19 87 52 87 9 0 18 7 22 15 3 8 16 15 28 15 13 0 29 4 37 9 11 7 9 14 -12 34 -25 22 -27 31 -27 101 0 59 -3 78 -15 82 -8 4 -15 15 -15 25 0 10 -6 19 -12 19 -7 0 -23 3 -35 6 -17 5 -23 2 -23 -10z"/>
 <path d="M3720 11097 c-12 -120 0 -279 24 -303 9 -8 16 -31 16 -50 0 -30 3 -34 25 -34 14 0 34 9 46 21 19 19 21 32 21 157 0 113 -3 137 -16 144 -9 5 -16 15 -16 23 0 8 -8 18 -17 23 -17 9 -83 24 -83 19z"/>
 <path d="M2440 11075 c-7 -8 -18 -15 -26 -15 -24 0 -64 -46 -64 -74 0 -14 -4 -26 -9 -26 -17 0 -20 -29 -6 -44 8 -8 15 -25 15 -39 0 -13 9 -32 20 -42 11 -10 20 -24 20 -32 0 -7 6 -13 13 -13 8 0 22 -9 32 -20 10 -11 23 -20 29 -19 6 0 6 3 -1 6 -7 2 -13 11 -13 18 0 8 -8 18 -17 24 -15 8 -18 23 -18 79 0 52 4 73 18 86 9 10 17 24 17 31 0 8 11 25 24 39 18 20 33 26 66 26 37 0 41 2 30 15 -8 10 -30 15 -65 15 -35 0 -57 -5 -65 -15z"/>
 <path d="M2888 11069 c-24 -26 -26 -196 -3 -205 8 -4 15 -19 15 -35 0 -15 6 -32 13 -36 8 -4 16 -16 20 -25 3 -10 13 -18 22 -18 8 0 15 -7 15 -15 0 -8 9 -15 20 -15 11 0 28 -9 37 -20 10 -11 28 -20 41 -20 12 0 25 -7 28 -15 3 -8 14 -17 25 -20 10 -4 19 -13 19 -21 0 -8 7 -17 15 -20 8 -4 15 -16 15 -28 0 -37 12 -66 26 -66 8 0 14 -7 14 -15 0 -8 4 -15 9 -15 11 0 21 35 21 76 0 19 6 34 15 38 12 4 15 30 15 146 0 116 -3 142 -15 146 -11 5 -15 22 -15 69 0 47 -5 68 -20 88 -11 14 -20 30 -20 36 0 17 -49 13 -70 -6 -15 -15 -19 -36 -22 -141 -2 -105 -6 -125 -20 -133 -10 -6 -18 -19 -18 -29 0 -29 -84 -29 -100 -1 -5 11 -10 78 -10 149 0 106 -3 131 -15 136 -8 3 -15 12 -15 21 0 20 -21 18 -42 -6z"/>
 <path d="M4620 11075 c-7 -8 -18 -15 -24 -15 -6 -1 -20 -12 -31 -26 -11 -14 -28 -34 -37 -46 -25 -29 -23 -89 2 -111 11 -9 20 -26 20 -37 0 -11 7 -20 15 -20 8 0 15 -6 15 -12 0 -18 47 -61 62 -56 8 3 4 12 -10 26 -19 19 -22 33 -22 96 0 53 4 75 14 79 7 3 16 19 19 35 7 33 26 42 95 42 76 0 82 -8 82 -108 0 -71 -3 -91 -17 -104 -10 -8 -27 -27 -38 -41 -15 -20 -29 -26 -57 -27 -29 0 -36 -3 -32 -15 5 -12 25 -15 90 -15 68 0 84 3 84 15 0 8 7 15 15 15 8 0 15 6 15 13 0 7 9 20 20 30 16 13 20 29 20 77 0 48 -4 64 -20 77 -11 10 -20 21 -20 26 0 15 -85 87 -103 87 -10 0 -20 7 -23 15 -5 11 -22 15 -64 15 -39 0 -62 -5 -70 -15z"/>
 <path d="M8794 11033 c-3 -32 -11 -63 -16 -69 -4 -7 -11 -41 -15 -78 -6 -65 -6 -66 -40 -72 -57 -11 -103 2 -134 37 l-29 33 0 -45 c0 -68 -20 -89 -85 -89 -44 0 -55 3 -60 19 -3 11 -12 22 -20 25 -20 7 -20 72 0 80 8 3 15 14 15 25 0 11 11 32 25 47 14 15 25 31 25 35 0 5 11 9 25 9 14 0 34 9 45 20 12 12 26 18 33 13 7 -4 7 0 -2 10 -19 23 -169 25 -177 2 -4 -8 -12 -15 -20 -15 -8 0 -14 -9 -14 -20 0 -11 -7 -20 -15 -20 -12 0 -15 -17 -15 -95 0 -78 3 -95 15 -95 8 0 15 -9 15 -20 0 -11 7 -20 15 -20 9 0 18 -7 21 -15 5 -12 25 -15 92 -15 84 0 86 0 113 33 26 31 29 32 109 32 67 0 83 -3 91 -17 8 -14 23 -18 64 -18 54 0 54 0 45 26 -6 14 -10 38 -10 53 0 16 -7 34 -15 41 -11 9 -15 33 -15 92 0 58 -4 80 -14 84 -8 3 -16 14 -19 25 -10 37 -26 18 -33 -38z"/>
 <path d="M9419 11068 c-7 -13 -18 -27 -25 -31 -10 -6 -14 -31 -14 -86 0 -58 -4 -82 -15 -91 -20 -17 -20 -119 0 -146 8 -10 15 -29 15 -41 0 -19 5 -23 34 -23 19 0 41 7 50 15 8 8 21 15 29 15 19 0 60 46 52 59 -3 6 -13 11 -21 11 -8 0 -14 7 -14 15 0 8 -7 15 -15 15 -13 0 -15 24 -15 155 l0 155 -25 0 c-15 0 -29 -8 -36 -22z"/>
 <path d="M9794 11075 c-4 -8 -12 -15 -18 -15 -16 0 -56 -42 -56 -58 0 -7 -7 -12 -15 -12 -11 0 -15 -12 -15 -50 0 -36 4 -52 15 -56 8 -4 15 -19 15 -34 0 -20 6 -31 20 -35 11 -3 20 -13 20 -21 0 -8 7 -14 15 -14 8 0 15 -7 15 -15 0 -8 7 -15 15 -15 8 0 15 5 15 10 0 6 -7 13 -15 16 -12 5 -15 25 -15 95 0 49 4 89 9 89 5 0 14 13 19 29 8 23 19 31 47 37 47 9 116 -1 126 -18 5 -7 9 -46 9 -86 0 -60 -3 -75 -20 -89 -11 -10 -20 -25 -20 -35 0 -10 -6 -18 -14 -18 -8 0 -16 -7 -20 -15 -3 -10 -19 -15 -47 -15 -60 0 -45 -23 22 -32 89 -13 159 9 159 49 0 7 7 16 15 19 11 5 15 22 15 70 0 50 -3 64 -15 64 -10 0 -15 10 -15 28 0 27 -37 72 -59 72 -6 0 -11 7 -11 15 0 8 -7 15 -15 15 -8 0 -24 9 -35 20 -26 26 -137 29 -146 5z"/>
 <path d="M9040 10940 c0 -129 -1 -140 -20 -150 -11 -6 -20 -17 -20 -25 0 -10 -11 -15 -35 -15 -39 0 -48 -17 -12 -24 12 -3 57 -7 100 -8 l77 -3 0 128 c0 104 -3 129 -15 133 -8 4 -15 18 -15 33 0 23 -37 71 -54 71 -3 0 -6 -63 -6 -140z"/>
 <path d="M1942 11038 c-2 -10 -11 -18 -18 -18 -11 0 -14 -29 -14 -150 l0 -150 130 0 c125 0 130 1 130 21 0 18 -4 20 -43 14 -36 -6 -46 -3 -67 18 -41 40 -60 70 -60 95 0 25 37 100 58 117 8 6 12 22 10 36 -3 22 -9 25 -62 29 -51 5 -60 3 -64 -12z"/>
 <path d="M3518 11053 c-29 -3 -38 -9 -38 -23 0 -10 -7 -20 -15 -24 -12 -4 -15 -30 -15 -141 0 -133 0 -136 24 -146 32 -15 66 14 66 57 0 17 3 34 7 37 3 4 5 38 4 77 -2 53 2 74 13 86 19 19 22 85 4 82 -7 -1 -30 -3 -50 -5z"/>
 <path d="M5130 11043 c0 -7 -7 -13 -15 -13 -12 0 -15 -19 -15 -110 0 -91 3 -110 15 -110 10 0 15 -10 15 -30 0 -20 5 -30 15 -30 8 0 15 -7 15 -15 0 -12 16 -15 85 -15 47 0 85 4 85 9 0 5 9 13 20 16 53 17 65 66 25 109 -41 44 -75 28 -75 -35 0 -64 -5 -69 -76 -69 -56 0 -64 2 -64 19 0 10 -7 24 -15 31 -19 16 -19 39 0 64 8 11 15 30 15 42 0 28 52 84 78 84 11 0 25 7 32 15 7 8 22 15 33 15 19 0 19 2 7 14 -20 19 -180 27 -180 9z"/>
 <path d="M7356 10991 c-10 -96 3 -231 23 -239 9 -3 22 -12 29 -19 16 -16 158 -18 167 -2 4 5 18 14 31 19 20 8 24 16 24 53 0 36 -5 47 -29 65 -34 25 -41 20 -41 -25 0 -18 -4 -33 -9 -33 -5 0 -14 -14 -20 -30 -10 -31 -11 -31 -73 -28 l-63 3 -3 78 c-2 62 0 78 13 83 8 3 15 11 15 16 0 16 49 58 68 58 24 1 67 39 56 49 -5 5 -48 11 -95 13 l-87 3 -6 -64z"/>
 <path d="M7911 11023 c-23 -21 -41 -46 -41 -55 0 -10 -7 -18 -15 -18 -9 0 -15 -10 -15 -26 0 -14 -9 -37 -20 -51 -15 -20 -20 -41 -20 -89 0 -34 4 -65 8 -68 20 -12 51 7 57 35 4 16 13 29 21 29 9 0 14 11 14 30 0 18 6 33 15 36 8 4 15 18 15 34 0 15 8 38 18 51 10 13 21 32 25 42 4 11 17 17 37 17 37 0 39 17 3 31 -16 6 -35 17 -45 26 -15 13 -20 11 -57 -24z"/>
 <path d="M5810 11040 c0 -5 9 -14 20 -20 24 -13 27 -55 4 -64 -9 -3 -60 -6 -114 -6 -90 0 -102 -2 -139 -27 -35 -23 -41 -32 -41 -61 0 -28 8 -43 40 -74 23 -21 44 -38 47 -38 4 0 14 -7 23 -15 12 -11 45 -15 120 -17 90 -3 105 -1 108 13 2 9 -4 24 -13 32 -19 20 -19 64 0 83 8 9 15 24 15 34 0 10 4 21 9 25 6 3 16 18 23 33 25 49 -17 111 -74 112 -16 0 -28 -4 -28 -10z"/>
 <path d="M6518 11031 c-24 -24 -27 -216 -4 -224 8 -3 16 -16 18 -29 2 -13 11 -24 22 -26 11 -3 26 -10 34 -18 19 -19 106 -18 122 1 7 8 23 15 37 15 23 0 24 3 21 52 -2 30 -8 53 -15 56 -7 2 -13 -4 -13 -12 0 -9 -6 -19 -14 -22 -8 -3 -16 -14 -19 -25 -4 -15 -14 -19 -55 -19 l-49 0 -7 41 c-4 23 -4 68 0 100 7 60 27 85 78 99 11 3 21 11 24 18 3 9 -18 12 -80 11 -66 0 -87 -4 -100 -18z"/>
 <path d="M10312 11033 c-4 -10 -7 -67 -7 -128 l0 -110 37 -38 c37 -38 37 -38 133 -42 79 -4 95 -2 95 11 0 8 -7 17 -15 20 -11 5 -15 22 -15 69 0 54 3 65 19 70 11 3 22 12 25 20 4 10 20 15 51 15 32 0 45 4 45 14 0 21 -67 86 -88 86 -10 0 -32 -16 -49 -35 -29 -32 -36 -35 -85 -35 -46 0 -59 5 -87 30 -24 21 -32 35 -28 50 6 25 -20 28 -31 3z"/>
 <path d="M2628 10933 c-2 -68 -7 -98 -16 -101 -7 -2 -17 -15 -22 -28 -5 -13 -16 -24 -25 -24 -8 0 -15 -7 -15 -15 0 -10 -11 -15 -35 -15 -26 0 -33 -3 -29 -15 5 -11 23 -15 76 -15 64 0 72 3 99 29 16 16 29 39 29 51 0 11 7 23 15 26 11 4 15 21 15 55 0 35 -4 51 -15 55 -8 4 -15 16 -15 28 0 18 -38 66 -53 66 -3 0 -7 -44 -9 -97z"/>
 <path d="M8046 10981 c-3 -5 3 -20 14 -34 15 -18 20 -40 20 -81 0 -41 4 -58 15 -62 8 -4 15 -16 15 -28 0 -32 19 -47 42 -35 22 12 24 47 3 55 -10 4 -15 20 -15 45 0 25 -5 42 -14 45 -8 3 -17 16 -20 30 -4 13 -13 24 -21 24 -8 0 -15 9 -15 19 0 22 -16 36 -24 22z"/>
 <path d="M4680 10525 c9 -11 33 -15 91 -15 64 0 79 3 79 15 0 12 -17 15 -91 15 -80 0 -90 -2 -79 -15z"/>
 <path d="M9512 9862 c-18 -16 -32 -32 -32 -35 0 -4 -8 -15 -17 -26 -61 -64 -83 -91 -83 -100 0 -6 -6 -11 -14 -11 -8 0 -18 -9 -21 -20 -3 -11 -13 -20 -21 -20 -8 0 -14 -9 -14 -19 0 -10 -7 -21 -15 -25 -8 -3 -15 -12 -15 -20 0 -9 -9 -20 -20 -26 -11 -6 -20 -20 -20 -30 0 -11 -7 -20 -15 -20 -10 0 -15 -10 -15 -28 0 -48 -36 -72 -108 -72 -61 0 -62 0 -62 -28 0 -16 -9 -39 -20 -52 -12 -14 -20 -37 -20 -60 0 -24 -5 -40 -15 -44 -8 -3 -15 -15 -15 -26 0 -11 -6 -23 -14 -26 -8 -3 -17 -16 -20 -30 -4 -13 -21 -40 -39 -59 -90 -99 -148 -155 -157 -155 -5 0 -10 -7 -10 -15 0 -8 -5 -15 -11 -15 -14 0 -59 -47 -59 -61 0 -5 -6 -9 -14 -9 -8 0 -17 -9 -21 -19 -3 -11 -12 -22 -20 -25 -8 -3 -15 -12 -15 -20 0 -7 -7 -16 -15 -20 -8 -3 -15 -12 -15 -20 0 -9 -9 -20 -20 -26 -11 -6 -20 -19 -20 -29 0 -11 -7 -21 -15 -25 -8 -3 -15 -17 -15 -31 0 -14 -7 -28 -15 -31 -8 -4 -18 -23 -21 -44 -4 -22 -13 -41 -20 -44 -9 -3 -14 -21 -14 -50 0 -28 -5 -46 -14 -49 -8 -3 -15 -28 -19 -61 -3 -31 -13 -63 -21 -72 -10 -9 -16 -33 -16 -59 0 -29 -5 -45 -15 -49 -10 -3 -15 -19 -15 -43 0 -26 -6 -44 -20 -56 -12 -10 -20 -29 -20 -47 0 -18 -6 -33 -15 -36 -9 -4 -15 -19 -15 -36 0 -16 -9 -41 -20 -55 -11 -14 -20 -36 -20 -48 0 -13 -7 -25 -15 -29 -9 -3 -15 -18 -15 -35 0 -16 -6 -31 -15 -35 -8 -3 -15 -15 -15 -26 0 -11 -9 -28 -20 -37 -11 -10 -20 -29 -20 -44 0 -15 -7 -29 -15 -33 -8 -3 -15 -16 -15 -28 0 -13 -9 -31 -20 -41 -11 -9 -20 -28 -20 -41 0 -13 -7 -26 -15 -30 -8 -3 -15 -17 -15 -30 0 -15 -8 -30 -20 -36 -11 -6 -20 -21 -20 -34 0 -13 -7 -26 -15 -30 -9 -3 -15 -18 -15 -35 0 -16 -6 -31 -14 -34 -7 -3 -16 -21 -20 -40 -4 -19 -13 -38 -21 -41 -9 -3 -15 -18 -15 -35 0 -16 -6 -31 -15 -35 -8 -3 -15 -16 -15 -29 0 -13 -9 -34 -20 -47 -11 -13 -20 -34 -20 -47 0 -13 -7 -26 -15 -29 -9 -4 -15 -19 -15 -35 0 -17 -6 -32 -15 -35 -8 -3 -18 -22 -21 -42 -4 -20 -13 -43 -21 -50 -7 -7 -13 -26 -13 -42 0 -16 -6 -33 -13 -37 -8 -4 -17 -23 -20 -41 -4 -18 -14 -40 -22 -48 -8 -9 -15 -30 -15 -49 0 -20 -6 -35 -15 -39 -9 -3 -15 -19 -15 -41 0 -23 -7 -41 -20 -52 -13 -12 -20 -30 -20 -54 0 -24 -5 -39 -15 -43 -10 -3 -15 -19 -15 -42 0 -21 -6 -41 -15 -48 -9 -6 -18 -29 -22 -51 -3 -22 -11 -43 -17 -47 -6 -4 -135 -8 -286 -8 -230 0 -279 3 -297 15 -12 8 -49 18 -83 22 -38 4 -64 11 -67 20 -3 7 -18 13 -34 13 -16 0 -32 6 -35 14 -3 8 -21 17 -40 20 -20 4 -34 13 -34 21 0 9 -10 15 -24 15 -13 0 -29 7 -36 15 -7 8 -21 15 -31 15 -11 0 -27 9 -36 20 -15 17 -30 20 -100 20 -67 0 -83 -3 -83 -15 0 -8 -4 -15 -9 -15 -14 0 -61 -45 -61 -59 0 -6 -7 -11 -15 -11 -9 0 -15 -9 -15 -25 0 -14 -7 -28 -15 -31 -8 -4 -15 -18 -15 -34 0 -15 -9 -37 -20 -50 -14 -16 -20 -37 -20 -70 0 -33 -5 -50 -15 -54 -11 -4 -15 -22 -15 -72 0 -47 -5 -73 -16 -85 -10 -11 -17 -47 -21 -110 -4 -58 -11 -99 -20 -107 -10 -10 -13 -53 -13 -174 l0 -161 32 -29 c27 -24 40 -28 89 -28 38 0 61 -5 69 -15 11 -13 57 -15 306 -15 281 0 295 -1 314 -20 11 -11 26 -20 33 -20 8 0 21 -8 30 -18 22 -25 24 -117 2 -126 -8 -3 -15 -14 -15 -24 0 -10 -9 -27 -20 -37 -11 -10 -20 -27 -20 -37 0 -10 -7 -21 -15 -24 -8 -4 -15 -12 -15 -20 0 -7 -6 -17 -13 -21 -7 -4 -18 -20 -24 -35 -7 -16 -17 -28 -23 -28 -5 0 -10 -11 -10 -25 0 -14 -5 -25 -11 -25 -5 0 -15 -13 -20 -29 -6 -16 -17 -32 -25 -35 -8 -3 -14 -18 -14 -35 0 -16 -6 -31 -15 -35 -8 -3 -15 -18 -15 -33 0 -16 -9 -36 -20 -46 -11 -10 -20 -29 -20 -46 0 -16 -6 -31 -15 -35 -9 -3 -15 -18 -15 -37 0 -17 -9 -42 -20 -56 -11 -14 -20 -38 -20 -53 0 -16 -7 -30 -15 -34 -10 -4 -15 -20 -15 -50 0 -28 -5 -46 -14 -49 -7 -3 -16 -26 -18 -51 -3 -24 -13 -52 -22 -61 -10 -10 -16 -33 -16 -61 0 -30 -5 -46 -15 -50 -10 -4 -15 -21 -15 -53 0 -34 -5 -51 -20 -64 -16 -13 -20 -29 -20 -81 0 -48 -4 -65 -15 -70 -12 -4 -15 -28 -15 -123 0 -85 -4 -126 -15 -147 -12 -23 -15 -83 -15 -337 0 -207 -3 -310 -11 -314 -7 -5 -8 -80 -3 -244 6 -215 5 -238 -10 -244 -12 -5 -16 -20 -16 -62 0 -30 -4 -55 -10 -55 -5 0 -17 -15 -25 -32 -32 -66 -40 -78 -52 -78 -7 0 -13 -11 -13 -25 0 -14 -8 -29 -20 -35 -17 -9 -20 -21 -20 -79 0 -49 -4 -72 -15 -81 -9 -7 -15 -29 -15 -51 0 -22 -5 -39 -10 -39 -6 0 -16 -12 -23 -27 -6 -16 -17 -32 -24 -36 -7 -4 -13 -13 -13 -20 -1 -27 -47 -57 -89 -57 -34 0 -43 4 -50 23 -5 13 -16 29 -25 36 -9 7 -16 24 -16 37 0 15 -6 24 -15 24 -11 0 -15 12 -15 44 0 28 -6 51 -16 61 -11 11 -18 40 -22 87 -3 46 -9 71 -18 75 -8 3 -14 16 -14 29 0 14 -7 27 -15 30 -8 4 -15 12 -15 20 0 7 -9 18 -20 24 -11 6 -20 19 -20 30 0 10 -6 23 -14 27 -7 4 -16 27 -19 50 -3 23 -12 50 -21 58 -14 14 -16 54 -16 308 0 192 -4 306 -12 332 -7 24 -14 155 -17 323 -5 222 -9 285 -20 291 -9 6 -15 38 -18 97 -4 60 -10 92 -19 97 -9 5 -14 27 -14 62 0 31 -6 59 -13 67 -8 7 -17 37 -20 67 -4 30 -13 61 -22 71 -9 10 -15 35 -15 63 0 35 -4 47 -15 47 -11 0 -15 12 -15 48 0 35 -5 52 -20 65 -15 12 -20 29 -20 62 0 31 -5 47 -15 51 -10 4 -15 20 -15 44 0 22 -7 45 -16 54 -8 9 -18 33 -21 53 -3 21 -12 42 -20 46 -7 4 -13 25 -13 46 0 25 -5 41 -15 45 -8 3 -15 17 -15 31 0 14 -9 30 -20 37 -11 7 -20 23 -20 36 0 12 -7 25 -15 28 -8 4 -15 12 -15 20 0 8 -9 22 -20 31 -11 10 -20 25 -20 35 0 10 -7 18 -15 18 -8 0 -15 6 -15 13 0 8 -9 24 -20 37 -11 13 -20 29 -20 35 0 7 -7 15 -15 19 -8 3 -15 12 -15 19 0 8 -7 20 -15 27 -8 7 -15 20 -15 30 0 9 -9 25 -20 35 -16 14 -20 31 -20 81 0 71 11 84 73 84 19 0 40 7 47 15 11 13 65 15 377 15 l364 0 -3 205 c-2 148 -6 208 -15 213 -8 5 -15 55 -19 144 -5 101 -11 138 -20 142 -10 4 -14 24 -14 66 0 45 -4 62 -15 66 -9 4 -15 19 -15 40 0 22 -7 40 -20 51 -11 10 -20 30 -20 45 0 18 -5 28 -15 28 -9 0 -15 9 -15 25 0 14 -8 29 -20 35 -11 6 -20 17 -20 25 0 8 -7 15 -15 15 -8 0 -15 7 -15 15 0 8 -6 15 -14 15 -8 0 -16 7 -20 15 -4 11 -22 15 -69 15 -45 0 -68 -5 -77 -15 -7 -8 -21 -15 -31 -15 -11 0 -28 -9 -39 -20 -11 -11 -29 -20 -40 -20 -11 0 -20 -5 -20 -11 0 -5 -13 -15 -30 -20 -16 -6 -30 -15 -30 -20 0 -5 -6 -9 -13 -9 -8 0 -22 -9 -32 -20 -10 -11 -28 -20 -41 -20 -13 0 -27 -6 -31 -14 -4 -7 -33 -16 -65 -19 -33 -3 -65 -13 -74 -21 -13 -14 -53 -16 -288 -16 l-272 0 -23 26 c-12 14 -25 42 -28 62 -3 21 -12 41 -20 45 -7 4 -13 23 -13 42 0 19 -6 38 -13 42 -8 4 -17 26 -20 48 -4 22 -13 45 -22 51 -9 7 -15 27 -15 48 0 23 -5 39 -15 42 -9 4 -15 19 -15 39 0 19 -8 39 -20 50 -12 11 -20 31 -20 50 0 20 -6 35 -15 39 -8 3 -15 17 -15 32 0 14 -9 37 -20 51 -11 14 -20 36 -20 48 0 13 -7 25 -15 29 -9 3 -15 18 -15 36 0 17 -6 33 -14 36 -8 3 -17 23 -21 44 -4 21 -13 41 -21 44 -8 3 -14 19 -14 36 0 20 -5 30 -15 30 -10 0 -15 10 -15 30 0 19 -7 33 -20 40 -13 7 -20 21 -20 40 0 20 -5 30 -15 30 -10 0 -15 10 -15 28 0 15 -9 35 -20 45 -11 9 -20 26 -20 37 0 11 -7 23 -15 26 -9 4 -15 19 -15 35 0 19 -5 29 -15 29 -8 0 -15 9 -15 19 0 30 -11 51 -26 51 -8 0 -14 10 -14 25 0 14 -7 28 -15 31 -8 4 -15 14 -15 24 0 9 -9 27 -20 40 -11 13 -20 31 -20 40 0 10 -7 20 -15 24 -8 3 -15 16 -15 29 0 13 -9 34 -20 47 -11 13 -20 33 -20 45 0 13 -7 25 -15 29 -9 3 -15 18 -15 36 0 18 -6 33 -15 36 -9 4 -15 19 -15 35 0 17 -9 36 -20 46 -13 11 -20 30 -20 51 0 20 -6 35 -15 38 -10 4 -15 20 -15 50 0 32 -6 49 -20 61 -14 13 -20 30 -20 61 0 29 -5 44 -15 48 -10 4 -15 20 -15 50 0 31 -5 46 -15 50 -8 4 -18 24 -21 46 -4 22 -13 42 -20 45 -8 3 -14 20 -14 39 0 24 -5 34 -15 34 -9 0 -15 9 -15 25 0 14 -9 33 -20 42 -11 10 -20 28 -20 40 0 13 -5 23 -10 23 -6 0 -15 11 -20 25 -5 14 -14 25 -19 25 -5 0 -14 14 -20 30 -5 17 -15 30 -20 30 -6 0 -11 4 -11 10 0 11 -48 60 -59 60 -5 0 -11 7 -15 15 -3 10 -19 15 -42 15 -29 0 -44 8 -80 45 -24 25 -44 52 -44 61 0 8 -6 17 -14 20 -8 3 -19 19 -25 35 -5 16 -15 29 -20 29 -6 0 -11 13 -11 29 0 16 -6 31 -15 35 -8 3 -15 17 -15 30 0 15 -8 30 -20 36 -12 6 -20 21 -20 35 0 16 -6 25 -15 25 -8 0 -15 6 -15 13 0 24 -74 87 -103 87 -33 0 -63 28 -72 68 -3 17 -13 33 -21 36 -8 3 -14 11 -14 18 0 8 -8 21 -17 30 -36 35 -53 55 -53 63 0 4 -16 23 -35 42 -19 19 -35 38 -35 43 0 6 -7 10 -15 10 -8 0 -15 7 -15 15 0 8 -6 15 -13 15 -7 0 -18 9 -25 20 -7 11 -17 20 -22 20 -11 0 -44 26 -69 53 -21 23 -31 21 -31 -6 0 -13 -2 -26 -5 -29 -7 -7 -7 -1689 0 -1696 3 -3 5 -32 5 -64 0 -40 5 -64 15 -74 11 -11 15 -38 15 -98 0 -62 4 -87 15 -96 9 -8 15 -30 15 -60 0 -33 6 -54 20 -70 17 -19 20 -37 20 -106 0 -64 4 -86 17 -99 15 -16 15 -19 0 -45 -23 -39 -25 -220 -2 -220 10 0 15 -10 15 -30 0 -18 6 -33 15 -36 8 -3 17 -21 21 -40 3 -19 12 -34 20 -34 8 0 14 -9 14 -19 0 -11 7 -26 15 -35 8 -8 15 -19 15 -24 0 -5 9 -17 20 -27 11 -10 20 -26 20 -35 0 -10 7 -20 15 -24 8 -3 15 -12 15 -20 0 -9 9 -20 20 -26 11 -6 20 -20 20 -31 0 -11 7 -22 15 -25 8 -4 15 -11 15 -17 0 -6 7 -17 15 -26 8 -9 23 -26 35 -38 11 -13 20 -30 20 -38 0 -9 7 -18 15 -21 8 -4 15 -12 15 -20 0 -7 9 -18 20 -24 11 -6 20 -17 20 -26 0 -8 7 -17 15 -20 8 -4 15 -14 15 -24 0 -10 9 -22 20 -25 11 -3 20 -13 20 -21 0 -8 7 -17 15 -20 8 -4 15 -10 15 -15 0 -13 42 -72 58 -82 6 -4 12 -15 12 -23 0 -8 7 -17 15 -20 8 -4 15 -12 15 -20 0 -8 9 -22 20 -31 11 -10 20 -23 20 -30 0 -6 6 -16 13 -20 14 -10 51 -61 60 -85 3 -10 11 -18 17 -18 5 0 10 -6 10 -13 0 -7 9 -20 20 -30 11 -9 20 -24 20 -32 0 -8 5 -15 10 -15 6 0 15 -11 20 -25 5 -14 14 -25 20 -25 5 0 10 -7 10 -15 0 -8 9 -24 20 -35 11 -11 20 -26 20 -34 0 -8 7 -16 15 -20 8 -3 15 -14 15 -23 0 -10 9 -26 20 -36 29 -24 29 -112 0 -127 -11 -6 -20 -19 -20 -29 0 -11 -7 -21 -15 -25 -8 -3 -15 -12 -15 -20 0 -9 -9 -20 -20 -26 -11 -6 -20 -17 -20 -25 0 -8 -7 -15 -15 -15 -8 0 -15 -4 -15 -10 0 -12 -48 -60 -60 -60 -6 0 -10 -4 -10 -10 0 -12 -218 -230 -231 -230 -5 0 -9 -7 -9 -15 0 -8 -4 -15 -9 -15 -5 0 -28 -18 -52 -40 -24 -22 -50 -40 -57 -40 -7 0 -15 -7 -18 -15 -4 -8 -10 -15 -15 -15 -5 0 -18 -9 -29 -20 -11 -11 -29 -20 -39 -20 -10 0 -21 -7 -25 -15 -3 -8 -17 -15 -31 -15 -14 0 -28 -6 -31 -14 -3 -7 -27 -16 -54 -20 -26 -4 -53 -13 -60 -21 -8 -10 -31 -15 -70 -15 -39 0 -62 -5 -70 -15 -7 -8 -23 -15 -36 -15 -13 0 -32 -9 -41 -19 -9 -11 -20 -18 -24 -15 -5 2 -13 -6 -20 -18 -7 -13 -18 -27 -25 -31 -8 -4 -14 -15 -14 -24 0 -21 73 -93 94 -93 9 0 25 -9 36 -20 18 -18 33 -20 139 -20 93 0 121 -3 131 -15 9 -10 31 -15 73 -15 43 0 63 -4 71 -16 7 -8 31 -18 55 -21 23 -3 45 -12 48 -19 3 -8 18 -14 34 -14 18 0 32 -7 39 -20 6 -11 19 -20 29 -20 10 0 24 -7 31 -15 7 -8 20 -15 30 -15 10 0 23 -7 30 -15 18 -21 162 -21 180 0 8 9 30 15 58 15 28 0 52 6 64 16 12 12 43 19 93 22 46 3 79 10 86 18 15 18 175 20 181 3 2 -7 31 -15 63 -20 34 -4 64 -14 71 -23 6 -9 20 -16 30 -16 10 0 36 -16 57 -35 21 -19 42 -35 48 -35 5 0 9 -7 9 -15 0 -8 4 -15 9 -15 11 0 61 -47 61 -57 0 -4 16 -21 35 -37 19 -16 35 -35 35 -41 0 -7 9 -22 20 -35 11 -13 20 -29 20 -37 0 -7 7 -13 15 -13 9 0 15 -9 15 -25 0 -13 6 -28 13 -32 7 -4 18 -20 24 -35 7 -16 17 -28 23 -28 5 0 10 -11 10 -25 0 -14 7 -28 15 -31 8 -4 15 -16 15 -29 0 -12 9 -32 20 -45 11 -13 20 -35 20 -50 0 -16 7 -30 15 -34 9 -3 15 -18 15 -37 0 -18 8 -41 17 -51 9 -10 18 -42 21 -73 3 -38 9 -55 18 -55 11 0 14 -21 14 -93 0 -70 4 -98 16 -116 15 -21 16 -56 12 -332 -4 -178 -2 -311 3 -315 5 -3 9 -208 9 -474 0 -407 2 -469 15 -474 8 -3 15 -17 15 -31 0 -14 7 -28 15 -31 8 -4 15 -15 15 -25 0 -11 9 -27 20 -36 11 -10 20 -28 20 -40 0 -14 6 -23 15 -23 10 0 15 -10 15 -28 0 -15 9 -35 20 -45 11 -9 20 -25 20 -36 0 -10 7 -21 15 -25 8 -3 15 -17 15 -31 0 -14 6 -28 14 -31 8 -3 18 -18 21 -34 3 -16 13 -31 21 -34 8 -3 14 -16 14 -30 0 -13 7 -26 15 -30 8 -3 15 -12 15 -19 0 -8 9 -22 20 -32 11 -10 20 -27 20 -37 0 -10 7 -21 15 -24 8 -4 15 -11 15 -18 0 -6 9 -19 20 -29 11 -9 20 -24 20 -32 0 -8 7 -15 15 -15 8 0 15 -9 15 -20 0 -11 7 -20 15 -20 8 0 15 -6 15 -14 0 -8 9 -18 20 -21 11 -3 20 -13 20 -21 0 -8 7 -14 15 -14 8 0 15 -5 15 -10 0 -6 8 -14 17 -17 15 -6 23 -12 73 -55 11 -10 24 -18 30 -18 5 0 14 -9 20 -20 6 -11 17 -20 25 -20 8 0 15 -4 15 -9 0 -5 10 -13 23 -17 12 -4 38 -22 57 -40 19 -19 38 -34 43 -34 11 0 70 -42 80 -57 4 -7 15 -13 22 -13 8 0 15 -4 15 -10 0 -5 11 -12 25 -16 14 -3 30 -15 36 -25 5 -11 16 -19 24 -19 8 0 15 -4 15 -9 0 -5 13 -14 30 -20 16 -5 30 -15 30 -20 0 -6 7 -11 15 -11 9 0 18 -6 21 -14 3 -8 18 -18 34 -21 16 -3 31 -13 34 -21 3 -8 12 -14 20 -14 7 0 16 -7 20 -15 3 -8 12 -15 21 -15 8 0 23 -8 34 -19 10 -10 29 -21 43 -24 l25 -7 6 102 c4 66 11 104 19 109 9 6 14 41 17 111 2 72 7 105 17 113 11 8 14 67 16 304 2 221 6 295 15 298 7 3 15 21 19 41 4 20 11 43 17 49 12 16 99 17 115 1 8 -8 12 -67 12 -201 0 -141 4 -197 14 -220 10 -22 16 -86 19 -195 4 -130 8 -167 21 -181 10 -11 16 -36 16 -69 0 -31 5 -54 13 -59 7 -4 23 -21 35 -37 18 -24 22 -42 22 -107 0 -74 12 -102 26 -64 4 8 14 15 24 15 10 0 23 7 30 15 7 8 18 15 26 15 7 0 17 6 21 12 12 20 70 58 88 58 8 0 15 7 15 15 0 8 4 15 8 15 5 0 19 9 32 20 13 11 29 20 37 20 8 0 29 16 47 35 19 19 40 35 47 35 12 0 64 40 110 85 9 8 22 15 30 15 8 0 30 16 49 35 19 19 38 35 43 35 4 0 16 8 27 17 50 44 58 50 73 56 9 3 17 11 17 17 0 5 7 10 15 10 8 0 15 6 15 14 0 8 9 18 20 21 11 3 20 13 20 21 0 8 7 14 15 14 8 0 15 7 15 15 0 8 4 15 10 15 11 0 60 48 60 59 0 5 7 11 15 15 8 3 15 12 15 21 0 8 5 15 10 15 6 0 16 12 23 28 6 15 17 31 24 35 7 4 13 17 13 27 0 11 4 20 10 20 5 0 16 15 24 34 8 18 19 37 25 40 6 4 11 18 11 32 0 15 6 24 15 24 10 0 15 10 15 28 0 15 9 35 20 45 11 9 20 28 20 41 0 13 7 26 15 30 8 3 15 17 15 31 0 14 6 28 14 31 8 3 18 20 22 37 3 17 13 37 20 45 8 7 14 24 14 38 0 14 6 27 14 30 8 3 17 20 20 39 4 18 13 36 21 39 9 3 15 18 15 36 0 20 5 30 15 30 13 0 15 101 15 849 0 791 1 851 17 867 12 12 19 38 21 88 3 47 9 74 18 79 8 5 14 24 14 48 0 26 5 42 15 45 8 4 18 23 21 44 4 22 13 41 20 44 8 3 14 17 14 31 0 14 6 28 14 31 8 3 18 18 21 34 3 16 13 31 21 34 8 3 14 15 14 26 0 11 7 20 15 20 8 0 15 9 15 20 0 11 9 28 20 37 11 10 20 23 20 30 0 7 7 13 15 13 8 0 15 9 15 20 0 11 7 20 15 20 8 0 15 7 15 16 0 16 128 149 169 174 13 8 31 23 40 33 8 9 21 17 28 17 6 0 19 8 29 17 16 16 45 18 309 18 233 0 298 -3 319 -14 20 -11 31 -12 49 -3 12 6 60 13 106 16 54 4 90 11 101 21 9 8 26 15 37 15 12 0 23 7 27 15 3 8 16 15 29 15 14 0 36 9 50 20 14 11 40 20 60 20 20 0 42 7 51 15 10 11 36 15 85 15 52 0 81 5 108 20 27 14 57 20 103 20 36 0 71 5 76 10 6 6 26 19 45 29 33 18 34 20 37 85 3 61 1 68 -18 73 -11 3 -20 12 -20 19 0 10 -12 14 -39 14 -21 0 -44 6 -50 14 -7 8 -46 16 -108 20 -63 4 -103 12 -113 21 -9 8 -25 15 -34 15 -10 0 -29 9 -43 20 -14 11 -32 20 -39 20 -8 0 -14 7 -14 15 0 9 -9 15 -23 15 -13 0 -38 15 -57 35 -19 19 -42 35 -50 35 -8 0 -32 16 -53 35 -21 19 -42 35 -48 35 -5 0 -9 7 -9 15 0 8 -9 15 -20 15 -11 0 -20 7 -20 15 0 8 -5 15 -11 15 -21 0 -229 204 -229 224 0 8 -7 16 -15 20 -8 3 -15 12 -15 21 0 8 -6 15 -13 15 -8 0 -19 11 -25 25 -6 14 -16 25 -22 25 -5 0 -10 9 -10 20 0 11 -7 23 -15 26 -8 4 -15 12 -15 20 0 8 -9 19 -20 26 -25 16 -30 98 -6 98 8 0 17 13 21 29 3 16 13 32 21 35 8 3 14 12 14 21 0 8 5 15 11 15 5 0 15 13 20 29 6 16 17 32 25 35 8 3 14 12 14 20 0 7 7 16 15 20 8 3 15 12 15 19 0 8 9 22 20 32 11 10 20 24 20 30 0 7 7 15 15 19 8 3 15 12 15 21 0 8 9 25 20 38 44 49 50 58 50 72 0 8 5 15 10 15 6 0 16 12 23 28 6 15 17 31 24 35 7 4 13 15 13 22 0 8 7 15 15 15 8 0 15 8 15 18 0 11 9 27 20 37 11 10 20 24 20 30 0 7 7 15 15 19 8 3 15 12 15 19 0 8 9 22 20 32 11 10 20 24 20 32 0 7 5 13 10 13 6 0 15 11 20 25 5 14 14 25 20 25 5 0 10 7 10 15 0 8 9 23 20 32 11 10 20 23 20 29 0 7 7 14 15 18 8 3 15 12 15 19 0 8 9 22 20 32 11 10 20 24 20 32 0 7 5 13 10 13 6 0 15 11 20 25 5 14 14 25 20 25 5 0 10 7 10 15 0 8 9 23 20 32 11 10 20 25 20 35 0 10 7 18 15 18 8 0 15 7 15 15 0 8 9 23 20 32 11 10 20 27 20 39 0 12 7 24 15 28 8 3 15 13 15 22 0 9 9 27 20 41 12 15 20 41 20 63 0 24 5 40 15 44 13 5 15 41 15 240 0 197 2 236 15 243 10 6 17 35 21 98 4 53 13 95 21 103 9 10 13 49 13 148 0 107 3 139 15 150 13 13 15 69 17 362 3 741 -3 1156 -18 1173 -9 10 -14 39 -14 77 0 53 -3 62 -18 62 -10 0 -33 -13 -50 -28z"/>
 </g>

</svg>
