<!DOCTYPE svg PUBLIC "-//W3C//DTD SVG 20010904//EN" "http://www.w3.org/TR/2001/REC-SVG-20010904/DTD/svg10.dtd">
<svg version="1.0" xmlns="http://www.w3.org/2000/svg" width="163px" height="86px" viewBox="0 0 1630 860" preserveAspectRatio="xMidYMid meet">
<g id="layer101" fill="#00d900" stroke="none">
 <path d="M1113 853 c4 -3 10 -3 14 0 3 4 0 7 -7 7 -7 0 -10 -3 -7 -7z"/>
 <path d="M1183 853 c4 -3 10 -3 14 0 3 4 0 7 -7 7 -7 0 -10 -3 -7 -7z"/>
 <path d="M1273 853 c4 -3 10 -3 14 0 3 4 0 7 -7 7 -7 0 -10 -3 -7 -7z"/>
 <path d="M864 821 c-17 -4 -36 -11 -42 -15 -7 -4 -12 -2 -12 3 0 7 -24 11 -60 11 l-60 0 0 -355 0 -355 65 0 65 0 0 114 0 114 38 -14 c20 -7 66 -13 102 -13 137 -1 188 55 198 217 8 147 -26 248 -93 282 -34 16 -154 23 -201 11z m120 -115 c45 -19 60 -64 51 -154 -8 -67 -19 -101 -39 -114 -6 -4 -36 -8 -67 -8 -92 0 -114 34 -107 165 4 96 16 108 121 124 4 0 23 -5 41 -13z"/>
 <path d="M1316 820 c-98 -25 -124 -63 -137 -200 -20 -209 39 -295 210 -308 167 -11 241 57 241 223 l0 85 -165 0 c-178 0 -178 0 -154 54 14 30 56 49 110 48 45 -1 89 -24 89 -47 0 -12 14 -15 60 -15 l60 0 0 31 c0 45 -29 88 -75 112 -46 23 -174 33 -239 17z m194 -331 c0 -36 -19 -58 -60 -69 -72 -20 -150 18 -150 72 0 16 11 18 105 18 99 0 105 -1 105 -21z"/>
 <path d="M215 813 c-29 -4 -33 -10 -123 -241 -51 -130 -92 -240 -92 -244 0 -5 29 -8 64 -8 52 0 65 3 71 18 4 9 29 80 57 157 27 77 53 143 57 147 4 5 33 -66 66 -157 l59 -165 67 0 67 0 -97 248 -97 247 -34 1 c-19 1 -49 -1 -65 -3z"/>
 <path d="M550 800 c-42 -42 -11 -113 50 -113 22 0 39 7 52 22 23 30 23 52 -3 85 -25 32 -70 35 -99 6z"/>
 <path d="M550 577 c0 -30 -3 -122 -7 -205 l-6 -152 61 0 62 0 0 83 c0 46 -3 139 -7 205 l-6 122 -49 0 -48 0 0 -53z"/>
 </g>
<g id="layer102" fill="#ffffff" stroke="none">
 <path d="M1113 853 c4 -3 10 -3 14 0 3 4 0 7 -7 7 -7 0 -10 -3 -7 -7z"/>
 <path d="M1183 853 c4 -3 10 -3 14 0 3 4 0 7 -7 7 -7 0 -10 -3 -7 -7z"/>
 <path d="M1273 853 c4 -3 10 -3 14 0 3 4 0 7 -7 7 -7 0 -10 -3 -7 -7z"/>
 <path d="M864 821 c-17 -4 -36 -11 -42 -15 -7 -4 -12 -2 -12 3 0 7 -24 11 -60 11 l-60 0 0 -355 0 -355 65 0 65 0 0 114 0 114 38 -14 c20 -7 66 -13 102 -13 137 -1 188 55 198 217 8 147 -26 248 -93 282 -34 16 -154 23 -201 11z m120 -115 c45 -19 60 -64 51 -154 -8 -67 -19 -101 -39 -114 -6 -4 -36 -8 -67 -8 -92 0 -114 34 -107 165 4 96 16 108 121 124 4 0 23 -5 41 -13z"/>
 <path d="M1316 820 c-98 -25 -124 -63 -137 -200 -20 -209 39 -295 210 -308 167 -11 241 57 241 223 l0 85 -165 0 c-178 0 -178 0 -154 54 14 30 56 49 110 48 45 -1 89 -24 89 -47 0 -12 14 -15 60 -15 l60 0 0 31 c0 45 -29 88 -75 112 -46 23 -174 33 -239 17z m194 -331 c0 -36 -19 -58 -60 -69 -72 -20 -150 18 -150 72 0 16 11 18 105 18 99 0 105 -1 105 -21z"/>
 <path d="M215 813 c-29 -4 -33 -10 -123 -241 -51 -130 -92 -240 -92 -244 0 -5 29 -8 64 -8 52 0 65 3 71 18 4 9 29 80 57 157 27 77 53 143 57 147 4 5 33 -66 66 -157 l59 -165 67 0 67 0 -97 248 -97 247 -34 1 c-19 1 -49 -1 -65 -3z"/>
 </g>

</svg>